<?xml version="1.0" encoding="UTF-8" standalone="no"?>
<!-- Created with Inkscape (http://www.inkscape.org/) -->

<svg
   xmlns:dc="http://purl.org/dc/elements/1.1/"
   xmlns:cc="http://creativecommons.org/ns#"
   xmlns:rdf="http://www.w3.org/1999/02/22-rdf-syntax-ns#"
   xmlns:svg="http://www.w3.org/2000/svg"
   xmlns="http://www.w3.org/2000/svg"
   xmlns:sodipodi="http://sodipodi.sourceforge.net/DTD/sodipodi-0.dtd"
   xmlns:inkscape="http://www.inkscape.org/namespaces/inkscape"
   width="512"
   height="512"
   id="svg3003"
   version="1.1"
   inkscape:version="0.48.4 r9939"
   sodipodi:docname="ASTONISHED FACE.svg">
  <defs
     id="defs3005" />
  <sodipodi:namedview
     id="base"
     pagecolor="#ffffff"
     bordercolor="#666666"
     borderopacity="1.0"
     inkscape:pageopacity="0.0"
     inkscape:pageshadow="2"
     inkscape:zoom="1.0214844"
     inkscape:cx="299.7001"
     inkscape:cy="245.02671"
     inkscape:current-layer="layer1"
     showgrid="true"
     inkscape:document-units="px"
     inkscape:grid-bbox="true"
     inkscape:window-width="679"
     inkscape:window-height="729"
     inkscape:window-x="0"
     inkscape:window-y="18"
     inkscape:window-maximized="0" />
  <metadata
     id="metadata3008">
    <rdf:RDF>
      <cc:Work
         rdf:about="">
        <dc:format>image/svg+xml</dc:format>
        <dc:type
           rdf:resource="http://purl.org/dc/dcmitype/StillImage" />
        <dc:title></dc:title>
      </cc:Work>
    </rdf:RDF>
  </metadata>
  <g
     id="layer1"
     inkscape:label="Layer 1"
     inkscape:groupmode="layer"
     transform="translate(0,448)">
    <g
       style="font-size:144px;font-style:normal;font-weight:normal;text-align:center;line-height:125%;letter-spacing:0px;word-spacing:0px;text-anchor:middle;fill:#000000;fill-opacity:1;stroke:none;font-family:Sans"
       id="text2983">
      <path
         d="m 244.20312,-261.23828 c -2e-4,13.94551 -4.99043,25.56659 -14.9707,34.86328 -9.98065,9.29705 -21.25993,13.94548 -33.83789,13.94531 -14.49233,1.7e-4 -26.25013,-4.99006 -35.27344,-14.9707 -9.02355,-10.117 -13.53526,-21.39628 -13.53515,-33.83789 -1.1e-4,-13.53493 4.71668,-25.01929 14.15039,-34.45313 9.57018,-9.57005 21.1229,-14.3552 34.6582,-14.35546 12.98811,2.6e-4 24.33576,4.78541 34.04297,14.35546 9.84355,9.43384 14.76542,20.9182 14.76562,34.45313 m 23.78907,0 c -2.3e-4,-13.53493 4.85328,-25.01929 14.56054,-34.45313 9.8435,-9.57005 21.2595,-14.3552 34.24805,-14.35546 13.53486,2.6e-4 25.01923,4.78541 34.45313,14.35546 9.56998,9.43384 14.35514,20.9182 14.35546,34.45313 -3.2e-4,12.44161 -4.51204,23.72089 -13.53515,33.83789 -9.02374,9.98064 -20.78155,14.97087 -35.27344,14.9707 -12.57839,1.7e-4 -23.85768,-4.64826 -33.83789,-13.94531 -9.9807,-9.29669 -14.97093,-20.91777 -14.9707,-34.86328 m 9.84375,0 c -2.4e-4,11.21114 3.9646,20.50801 11.89453,27.89062 7.92943,7.383 16.95285,11.0744 27.07031,11.07422 11.6208,1.8e-4 20.98603,-3.96466 28.0957,-11.89453 7.24578,-8.06621 10.86883,-17.08964 10.86914,-27.07031 -3.1e-4,-10.80056 -3.82843,-19.9607 -11.48437,-27.48047 -7.51983,-7.656 -16.67998,-11.48412 -27.48047,-11.48437 -10.39089,2.5e-4 -19.48268,3.82837 -27.27539,11.48437 -7.79321,7.51977 -11.68969,16.67991 -11.68945,27.48047 m 27.27539,0 c -2.7e-4,-3.28103 1.16184,-6.0154 3.48633,-8.20313 2.32394,-2.32399 5.05831,-3.4861 8.20312,-3.48632 3.28097,2.2e-4 6.01534,1.16233 8.20313,3.48632 2.32392,2.18773 3.48603,4.9221 3.48632,8.20313 -2.9e-4,3.00802 -1.09404,5.7424 -3.28125,8.20312 -2.05106,2.32443 -4.85379,3.48654 -8.4082,3.48633 -3.00809,2.1e-4 -5.74246,-1.09354 -8.20312,-3.28125 -2.32449,-2.18729 -3.4866,-4.99002 -3.48633,-8.4082 m -70.75196,0 c -1.9e-4,-10.80056 -3.89667,-19.9607 -11.68945,-27.48047 -7.79314,-7.656 -16.88493,-11.48412 -27.27539,-11.48437 -10.80093,2.5e-4 -20.02943,3.82837 -27.68555,11.48437 -7.51965,7.51977 -11.27941,16.67991 -11.27929,27.48047 -1.2e-4,9.98067 3.55456,19.0041 10.66406,27.07031 7.24596,7.92987 16.67954,11.89471 28.30078,11.89453 10.11702,1.8e-4 19.14045,-3.69122 27.07031,-11.07422 7.9295,-7.38261 11.89434,-16.67948 11.89453,-27.89062 m -27.27539,0 c -1.7e-4,3.41818 -1.23063,6.22091 -3.6914,8.4082 -2.32438,2.18771 -4.9904,3.28146 -7.99805,3.28125 -3.55484,2.1e-4 -6.42593,-1.1619 -8.61328,-3.48633 -2.05093,-2.46072 -3.07632,-5.1951 -3.07617,-8.20312 -1.5e-4,-3.28103 1.0936,-6.0154 3.28125,-8.20313 2.32406,-2.32399 5.1268,-3.4861 8.4082,-3.48632 3.14437,2.2e-4 5.87874,1.16233 8.20313,3.48632 2.32405,2.18773 3.48615,4.9221 3.48632,8.20313 m 11.89454,159.75586 c -10.25408,-10.25384 -15.38103,-22.62688 -15.38086,-37.11914 -1.7e-4,-14.49208 5.12678,-26.86512 15.38086,-37.11914 10.25371,-10.25377 22.62674,-15.38072 37.11914,-15.38086 14.49195,1.4e-4 26.86498,5.12709 37.11914,15.38086 10.25364,10.25402 15.38058,22.62706 15.38086,37.11914 -2.8e-4,14.49226 -5.12722,26.8653 -15.38086,37.11914 -10.25416,10.25395 -22.62719,15.380898 -37.11914,15.380858 -14.4924,4e-5 -26.86543,-5.126908 -37.11914,-15.380858 M 71.9375,-198.89453 c -3.5e-5,-50.99589 17.978463,-94.47241 53.93555,-130.42969 35.9569,-36.09343 79.36506,-54.14029 130.22461,-54.14062 50.99582,3.3e-4 94.40398,18.04719 130.22461,54.14062 35.81992,35.95728 53.73006,79.4338 53.73046,130.42969 -4e-4,50.85948 -17.91054,94.19928 -53.73046,130.01953 -35.82063,35.8203 -79.22879,53.730438 -130.22461,53.730469 C 205.23811,-15.144562 161.82995,-33.0547 125.87305,-68.875 89.915963,-104.69525 71.937465,-148.03505 71.9375,-198.89453 m 27.685547,0 c -6.3e-5,43.20323 15.244063,80.0489 45.732423,110.537108 30.62486,30.351575 67.53889,45.527341 110.74219,45.527344 43.33958,-3e-6 80.18524,-15.175769 110.53711,-45.527344 30.48792,-30.488208 45.73204,-67.333878 45.73242,-110.537108 -3.8e-4,-43.33965 -15.2445,-80.32203 -45.73242,-110.94727 -30.35187,-30.6247 -67.19753,-45.93719 -110.53711,-45.9375 -43.2033,3.1e-4 -80.11733,15.3128 -110.74219,45.9375 -30.48836,30.62524 -45.732486,67.60762 -45.732423,110.94727"
         style="font-size:420px"
         id="path4108" />
    </g>
  </g>
</svg>
