<?xml version="1.0" encoding="UTF-8" standalone="no"?>
<!-- Created with Inkscape (http://www.inkscape.org/) -->

<svg
   xmlns:dc="http://purl.org/dc/elements/1.1/"
   xmlns:cc="http://creativecommons.org/ns#"
   xmlns:rdf="http://www.w3.org/1999/02/22-rdf-syntax-ns#"
   xmlns:svg="http://www.w3.org/2000/svg"
   xmlns="http://www.w3.org/2000/svg"
   xmlns:sodipodi="http://sodipodi.sourceforge.net/DTD/sodipodi-0.dtd"
   xmlns:inkscape="http://www.inkscape.org/namespaces/inkscape"
   width="512"
   height="512"
   id="svg3003"
   version="1.1"
   inkscape:version="0.48.4 r9939"
   sodipodi:docname="CAT FACE WITH TEARS OF JOY.svg">
  <defs
     id="defs3005" />
  <sodipodi:namedview
     id="base"
     pagecolor="#ffffff"
     bordercolor="#666666"
     borderopacity="1.0"
     inkscape:pageopacity="0.0"
     inkscape:pageshadow="2"
     inkscape:zoom="0.36114926"
     inkscape:cx="602.03932"
     inkscape:cy="162.64408"
     inkscape:current-layer="layer1"
     showgrid="true"
     inkscape:document-units="px"
     inkscape:grid-bbox="true"
     inkscape:window-width="679"
     inkscape:window-height="729"
     inkscape:window-x="0"
     inkscape:window-y="18"
     inkscape:window-maximized="0" />
  <metadata
     id="metadata3008">
    <rdf:RDF>
      <cc:Work
         rdf:about="">
        <dc:format>image/svg+xml</dc:format>
        <dc:type
           rdf:resource="http://purl.org/dc/dcmitype/StillImage" />
        <dc:title></dc:title>
      </cc:Work>
    </rdf:RDF>
  </metadata>
  <g
     id="layer1"
     inkscape:label="Layer 1"
     inkscape:groupmode="layer"
     transform="translate(0,448)">
    <g
       style="font-size:144px;font-style:normal;font-weight:normal;text-align:center;line-height:125%;letter-spacing:0px;word-spacing:0px;text-anchor:middle;fill:#000000;fill-opacity:1;stroke:none;font-family:Sans"
       id="text2983">
      <path
         d="m 416.46875,-228.83594 c 0.27303,-5.46856 0.40975,-11.21074 0.41016,-17.22656 -4.1e-4,-6.28886 -0.34221,-12.91971 -1.02539,-19.89258 -0.684,-6.97243 -1.3676,-12.57789 -2.05079,-16.8164 -0.68399,-4.23804 -1.77774,-10.39038 -3.28125,-18.45704 -1.5043,-8.06614 -2.52969,-13.80832 -3.07617,-17.22656 -3.55508,-22.01142 -8.20351,-44.43327 -13.94531,-67.26562 -33.08629,7.93002 -60.15657,25.29328 -81.21094,52.08984 -15.85966,-2.8708 -34.45339,-4.30635 -55.78125,-4.30664 -21.32835,2.9e-4 -39.92208,1.43584 -55.78125,4.30664 -20.78142,-26.79656 -47.8517,-44.15982 -81.21093,-52.08984 -5.7423,22.83235 -10.52745,45.2542 -14.35547,67.26562 -0.68369,3.69168 -1.77744,9.43386 -3.28125,17.22656 -1.36728,7.79322 -2.392671,13.94556 -3.076176,18.45704 -0.683681,4.37523 -1.367274,10.04905 -2.050781,17.02148 -0.683679,6.83615 -1.025475,13.39864 -1.025391,19.6875 -8.4e-5,5.74238 0.136634,11.27949 0.410157,16.61133 3.281161,-6.01544 10.390531,-10.73223 21.328121,-14.15039 l 27.89063,-9.02344 -9.02344,27.89063 c -2.32434,6.97282 -5.26379,12.50993 -8.81836,16.61132 -3.41808,4.10172 -8.13487,6.1525 -14.15039,6.15235 -6.56259,1.5e-4 -11.7579,-2.52914 -15.585936,-7.58789 1.093662,11.89468 2.734286,23.03725 4.921876,33.42773 l 63.16406,-21.5332 4.51172,12.91992 -63.98437,22.14844 c 2.46083,7.92979 5.19521,15.24424 8.20312,21.94336 13.94519,30.8985 32.12877,54.482458 54.55078,70.751949 24.74591,18.046881 53.79862,27.07031 87.1582,27.070313 33.49582,-3e-6 62.68524,-9.023432 87.56836,-27.070313 22.14809,-16.132772 40.19494,-39.716729 54.14063,-70.751949 3.5543,-7.65615 6.42539,-15.10732 8.61328,-22.35352 l -63.16406,-21.73828 4.51172,-12.91992 61.93359,21.12304 c 2.1871,-9.29673 3.82772,-20.50766 4.92187,-33.63281 -3.82852,5.46891 -9.02383,8.20328 -15.58593,8.20313 -6.01601,1.5e-4 -10.80116,-2.05063 -14.35547,-6.15235 -3.55506,-4.10139 -6.42615,-9.6385 -8.61328,-16.61132 l -9.4336,-27.89063 28.30078,9.02344 c 11.21055,3.41816 18.31991,8.34003 21.32813,14.76562 m -192.36328,16.81641 c 12.5779,6.28922 23.31031,9.43375 32.19726,9.43359 8.88647,1.6e-4 19.61888,-3.14437 32.19727,-9.43359 l 12.71484,24.60937 c -16.40652,8.33998 -31.30885,12.5099 -44.70703,12.50977 -13.94554,1.3e-4 -28.98459,-4.16979 -45.11719,-12.50977 l 12.71485,-24.60937 m 32.8125,51.67969 c 15.58567,5.0587 31.30832,7.58799 47.16797,7.58789 21.60125,1e-4 42.38247,-4.51161 62.34375,-13.53516 0.81995,4.37512 1.23011,8.2716 1.23047,11.68945 -3.6e-4,9.29698 -2.05114,18.79892 -6.15235,28.50586 -7.38315,17.63678 -20.43978,31.513724 -39.16992,41.630863 -18.73076,9.980497 -40.26394,14.970726 -64.59961,14.970703 -24.33616,2.3e-5 -45.9377,-4.853488 -64.80469,-14.560547 -18.86735,-9.843702 -32.40249,-23.310489 -40.60547,-40.400389 -4.64857,-10.25382 -6.97279,-21.05459 -6.97265,-32.40235 -1.4e-4,-3.14441 0.13658,-6.28894 0.41015,-9.43359 20.50766,9.02355 41.69905,13.53526 63.57422,13.53516 16.40604,1e-4 32.2654,-2.52919 47.57813,-7.58789 m -207.539064,20.91797 c -5.058627,9e-5 -9.501982,-1.84561 -13.330078,-5.53711 -3.691428,-3.69131 -5.537129,-8.0663 -5.537109,-13.125 -2e-5,-6.01551 2.119119,-10.80066 6.357422,-14.35547 4.238251,-3.55456 9.912073,-6.49401 17.021484,-8.81836 l 18.457031,-5.94727 c -6.1e-5,-0.41001 -0.546936,-5.67368 -1.640625,-15.79101 l -20.917969,1.43554 -0.820312,-13.94531 20.507812,-1.23047 c -0.82037,-10.52716 -1.230526,-20.50762 -1.230468,-29.9414 -5.8e-5,-7.79276 0.27338,-15.31229 0.820312,-22.5586 0.546816,-7.24586 1.435487,-14.9021 2.666016,-22.96875 1.230406,-8.20287 2.255796,-14.49192 3.076172,-18.86719 0.820247,-4.51144 2.324152,-11.75753 4.511718,-21.73828 2.18743,-10.11689 3.554616,-16.8161 4.101563,-20.09765 3.281174,-15.99577 7.519451,-33.56412 12.714844,-52.70508 l 2.871093,-11.89453 12.304688,1.8457 c 19.55066,3.00818 37.93931,9.22888 55.16602,18.66211 17.3631,9.29722 32.47051,20.5765 45.32226,33.83789 14.35525,-1.77702 29.18922,-2.6657 44.50195,-2.66601 15.44896,3.1e-4 30.41965,0.88899 44.91211,2.66601 12.71454,-13.26139 27.68523,-24.54067 44.91211,-33.83789 17.36293,-9.43323 35.75159,-15.65393 55.16602,-18.66211 l 12.30469,-1.8457 3.28125,11.89453 c 5.1949,19.14096 9.29646,36.70931 12.30468,52.70508 0.68318,3.28155 2.05036,9.98076 4.10157,20.09765 2.18707,9.98075 3.69098,17.22684 4.51171,21.73828 0.81989,4.37527 1.91364,10.66432 3.28125,18.86719 1.36676,8.06665 2.25543,15.72289 2.66602,22.96875 0.40972,7.24631 0.6148,14.76584 0.61523,22.5586 -4.3e-4,9.29706 -0.27387,19.20916 -0.82031,29.73632 l 21.32813,1.43555 -0.82032,13.94531 -21.73828,-1.43554 c -0.82074,7.10952 -1.50433,12.37319 -2.05078,15.79101 l 18.45703,5.94727 c 7.10892,2.32435 12.71439,5.2638 16.81641,8.81836 4.10109,3.55481 6.15187,8.33996 6.15234,14.35547 -4.7e-4,5.0587 -1.84617,9.43369 -5.53711,13.125 -3.69186,3.6915 -7.9985,5.5372 -12.91992,5.53711 -6.01607,9e-5 -10.80122,-2.05069 -14.35547,-6.15235 -3.55512,-4.10146 -6.56293,-9.63856 -9.02343,-16.61133 l -2.8711,-8.61328 c -3.28167,14.21886 -7.9301,28.02744 -13.94531,41.42578 -15.85977,35.410207 -36.91444,62.685571 -63.16406,81.826175 -29.53157,21.601543 -63.98466,32.402313 -103.35938,32.402344 -39.3752,-3.1e-5 -73.96501,-10.800801 -103.76953,-32.402344 -26.25011,-19.140604 -47.30478,-46.415968 -63.164061,-81.826175 -5.742261,-12.71474 -10.390694,-26.7284 -13.945313,-42.04101 l -3.28125,9.22851 c -4.921931,15.17589 -12.578174,22.76377 -22.96875,22.76368 m 167.343754,-92.69532 c -2.1e-4,-5.87871 -0.75216,-11.89433 -2.25586,-18.04687 -1.50411,-6.15214 -3.89669,-11.55252 -7.17774,-16.20117 -3.28144,-4.78494 -7.17792,-7.17751 -11.68945,-7.17774 -4.5119,2.3e-4 -8.47674,2.3928 -11.89453,7.17774 -3.41814,4.64865 -5.81072,10.04903 -7.17774,16.20117 -1.36735,6.01582 -2.05094,12.03144 -2.05078,18.04687 l -27.89062,0 c -1.4e-4,-19.14042 4.78501,-35.40993 14.35547,-48.80859 9.57015,-13.39819 21.05451,-20.0974 34.45312,-20.09766 13.39824,2.6e-4 24.8826,6.69947 34.45313,20.09766 9.57008,13.39866 14.35523,29.66817 14.35546,48.80859 l -27.48046,0 m 121.40625,0 c -3.3e-4,-5.87871 -0.75228,-11.89433 -2.25586,-18.04687 -1.50423,-6.15214 -3.89681,-11.55252 -7.17774,-16.20117 -3.28156,-4.78494 -7.17804,-7.17751 -11.68945,-7.17774 -4.51202,2.3e-4 -8.47686,2.3928 -11.89453,7.17774 -3.41826,4.64865 -5.81084,10.04903 -7.17774,16.20117 -1.36747,6.01582 -2.05106,12.03144 -2.05078,18.04687 l -27.89062,0 c -2.6e-4,-19.14042 4.78489,-35.40993 14.35547,-48.80859 9.57003,-13.39819 21.05439,-20.0974 34.45312,-20.09766 13.39812,2.6e-4 24.88248,6.69947 34.45313,20.09766 9.56996,13.39866 14.35511,29.66817 14.35546,48.80859 l -27.48046,0 m -65.625,104.38477 c -4.92214,-0.95695 -10.11744,-2.18742 -15.58594,-3.69141 -3.55493,0.95712 -8.75024,2.11923 -15.58594,3.48633 l 0,29.736328 c 6.01539,0.683645 11.48413,1.025442 16.40625,1.025391 5.4685,5.1e-5 10.39037,-0.273386 14.76563,-0.820313 l 0,-29.736326 m 27.89062,2.66601 0,20.30274 c 13.1247,-5.33197 23.24188,-12.78313 30.35156,-22.35352 -9.84406,1.36727 -18.73077,2.05086 -26.66015,2.05078 l -3.69141,0 m -86.95312,19.89258 0,-19.89258 -4.10157,0 c -8.47675,8e-5 -17.09002,-0.61515 -25.83984,-1.8457 7.1092,9.16023 17.08965,16.40632 29.94141,21.73828"
         style="font-size:420px"
         id="path4281" />
    </g>
  </g>
</svg>
