<?xml version="1.0" encoding="UTF-8" standalone="no"?>
<!-- Created with Inkscape (http://www.inkscape.org/) -->

<svg
   xmlns:dc="http://purl.org/dc/elements/1.1/"
   xmlns:cc="http://creativecommons.org/ns#"
   xmlns:rdf="http://www.w3.org/1999/02/22-rdf-syntax-ns#"
   xmlns:svg="http://www.w3.org/2000/svg"
   xmlns="http://www.w3.org/2000/svg"
   xmlns:sodipodi="http://sodipodi.sourceforge.net/DTD/sodipodi-0.dtd"
   xmlns:inkscape="http://www.inkscape.org/namespaces/inkscape"
   width="512"
   height="512"
   id="svg3003"
   version="1.1"
   inkscape:version="0.48.4 r9939"
   sodipodi:docname="CRYING CAT FACE.svg">
  <defs
     id="defs3005" />
  <sodipodi:namedview
     id="base"
     pagecolor="#ffffff"
     bordercolor="#666666"
     borderopacity="1.0"
     inkscape:pageopacity="0.0"
     inkscape:pageshadow="2"
     inkscape:zoom="0.36114926"
     inkscape:cx="534.60374"
     inkscape:cy="162.64408"
     inkscape:current-layer="layer1"
     showgrid="true"
     inkscape:document-units="px"
     inkscape:grid-bbox="true"
     inkscape:window-width="679"
     inkscape:window-height="729"
     inkscape:window-x="0"
     inkscape:window-y="18"
     inkscape:window-maximized="0" />
  <metadata
     id="metadata3008">
    <rdf:RDF>
      <cc:Work
         rdf:about="">
        <dc:format>image/svg+xml</dc:format>
        <dc:type
           rdf:resource="http://purl.org/dc/dcmitype/StillImage" />
        <dc:title></dc:title>
      </cc:Work>
    </rdf:RDF>
  </metadata>
  <g
     id="layer1"
     inkscape:label="Layer 1"
     inkscape:groupmode="layer"
     transform="translate(0,448)">
    <g
       style="font-size:144px;font-style:normal;font-weight:normal;text-align:center;line-height:125%;letter-spacing:0px;word-spacing:0px;text-anchor:middle;fill:#000000;fill-opacity:1;stroke:none;font-family:Sans"
       id="text2983">
      <path
         d="m 365.60937,-283.79687 c -3.2e-4,19.00412 -4.37532,34.6584 -13.125,46.96289 -8.7503,12.30486 -18.38896,19.41423 -28.91601,21.32812 l 6.5625,12.91992 c 3.69111,7.24625 5.53681,13.60366 5.53711,19.07227 -3e-4,5.33216 -1.846,9.84388 -5.53711,13.53515 -3.6917,3.69153 -8.13505,5.53723 -13.33008,5.53711 -5.19559,1.2e-4 -9.63894,-1.84558 -13.33008,-5.53711 -3.69167,-3.69127 -5.53737,-8.54478 -5.53711,-14.56054 -2.6e-4,-0.41002 -2.6e-4,-0.82018 0,-1.23047 -15.0393,7.24623 -29.18968,10.86927 -42.45117,10.86914 -13.26192,1.3e-4 -27.95917,-4.16979 -44.0918,-12.50977 l 12.71485,-24.60937 c 12.44121,6.28922 23.17362,9.43375 32.19726,9.43359 9.02321,1.6e-4 19.75562,-3.14437 32.19727,-9.43359 l 10.45898,20.30273 c 0.95677,-3.2811 2.46068,-6.90414 4.51172,-10.86914 l 6.5625,-12.91992 c -10.5276,-1.91389 -20.16627,-9.02326 -28.91601,-21.32812 -8.75024,-12.30449 -13.12523,-27.95877 -13.125,-46.96289 l 27.68554,0 c -2.5e-4,11.34788 2.05052,21.12326 6.15235,29.32617 4.23801,8.0666 9.22824,12.0998 14.9707,12.09961 5.7419,1.9e-4 10.66377,-4.03301 14.76563,-12.09961 4.23798,-8.20291 6.35712,-17.97829 6.35742,-29.32617 l 27.68554,0 m -121.40625,0 c -2e-4,19.00412 -4.78535,35.27364 -14.35546,48.80859 -9.5705,13.39861 -21.05486,20.09782 -34.45313,20.09766 -13.39858,1.6e-4 -24.88294,-6.69905 -34.45312,-20.09766 -9.57043,-13.53495 -14.35558,-29.80447 -14.35547,-48.80859 l 27.68554,0 c -1.3e-4,11.34788 2.05065,21.12326 6.15235,29.32617 4.23813,8.0666 9.22836,12.0998 14.9707,12.09961 5.74202,1.9e-4 10.66389,-4.03301 14.76563,-12.09961 4.2381,-8.20291 6.35724,-17.97829 6.35742,-29.32617 l 27.68554,0 m -78.33984,165.29296 c 24.74594,-24.74599 54.82404,-37.11903 90.23438,-37.11914 35.4099,1.1e-4 65.48799,12.37315 90.23437,37.11914 l -19.6875,19.687504 c -19.41433,-19.413994 -42.86157,-29.121014 -70.3418,-29.121094 -27.48066,8e-5 -51.06462,9.7071 -70.75195,29.121094 l -19.6875,-19.687504 m -94.130858,-73.41796 c -2.324251,-16.95297 -3.486359,-34.38459 -3.486328,-52.29493 -3.1e-5,-17.90994 1.093717,-33.56422 3.28125,-46.96289 2.187463,-13.39818 4.785117,-27.34347 7.792968,-41.83593 l 4.101563,-19.89258 c 3.144482,-15.99577 7.314399,-33.56412 12.509766,-52.70508 l 3.076171,-11.89453 12.304688,1.8457 c 19.55069,3.00818 37.93934,9.22888 55.16602,18.66211 17.36313,9.29722 32.40218,20.5765 45.11718,33.83789 14.35528,-1.77702 29.25761,-2.6657 44.70703,-2.66601 15.44899,3.1e-4 30.35132,0.88899 44.70704,2.66601 12.71456,-13.26139 27.68525,-24.54067 44.9121,-33.83789 17.36296,-9.43323 35.81997,-15.65393 55.3711,-18.66211 l 12.09961,-1.8457 3.28125,11.89453 c 5.19493,19.14096 9.36484,36.70931 12.50976,52.70508 l 4.10157,19.89258 c 5.8785,27.89088 9.15975,47.30492 9.84375,58.24218 0.8199,10.93772 1.23006,23.2424 1.23046,36.91407 -4e-4,13.67205 -1.16251,28.98453 -3.48632,45.9375 l 22.14843,3.07617 -2.05078,13.53515 -22.35351,-2.87109 c -2.05118,11.07434 -5.26407,22.5587 -9.63867,34.45312 l 22.55859,9.4336 -5.33203,12.71484 -22.35352,-9.43359 c -15.99646,36.230516 -38.07652,64.599628 -66.24023,85.10742 -28.16436,20.507792 -62.00221,30.761688 -101.51367,30.761719 -39.37518,-3.1e-5 -73.07632,-10.185568 -101.10352,-30.556641 -28.02743,-20.371073 -50.10749,-48.808545 -66.240234,-85.312498 l -22.353515,9.43359 -5.332032,-12.71484 22.353516,-9.4336 c -4.101605,-11.07411 -7.246133,-22.55847 -9.433594,-34.45312 l -22.353515,2.87109 -2.050782,-13.53515 22.148438,-3.07617 m 42.451168,50.24414 c 29.39443,65.898463 76.76743,98.847649 142.11914,98.847652 33.49585,-3e-6 62.00168,-8.544917 85.51758,-25.634766 23.65202,-17.226522 42.51919,-41.630796 56.60156,-73.212886 l -58.85742,-25.01954 5.33203,-12.71484 58.65235,24.81445 c 2.87072,-7.79285 5.33166,-16.88464 7.38281,-27.27539 l -65.625,-9.02343 2.05078,-13.53516 65.83008,8.81836 c 2.46056,-17.77327 3.69103,-32.19708 3.69141,-43.27149 -3.8e-4,-18.59353 -1.77773,-37.52906 -5.33204,-56.80664 l -6.15234,-35.68359 c -2.18786,-13.39814 -6.22106,-31.51335 -12.09961,-54.3457 -33.22298,7.93002 -60.29326,25.29328 -81.21094,52.08984 -15.85963,-2.8708 -34.45336,-4.30635 -55.78125,-4.30664 -21.32832,2.9e-4 -39.92205,1.43584 -55.78125,4.30664 -20.91811,-26.79656 -47.98839,-44.15982 -81.21093,-52.08984 -5.74227,22.83235 -10.45906,45.2542 -14.15039,67.26562 l -3.28125,17.22656 c -4.375064,22.96899 -6.562562,41.97287 -6.562504,57.01172 -5.8e-5,14.62909 1.298769,30.83025 3.896485,48.60352 l 66.035159,-8.81836 2.05078,13.53516 -65.83008,9.02343 c 1.914,9.43372 4.44329,18.52551 7.58789,27.27539 l 58.65234,-24.81445 5.33204,12.71484 -58.85743,25.01954"
         style="font-size:420px"
         id="path4496" />
    </g>
  </g>
</svg>
