<?xml version="1.0" encoding="UTF-8" standalone="no"?>
<!-- Created with Inkscape (http://www.inkscape.org/) -->

<svg
   xmlns:dc="http://purl.org/dc/elements/1.1/"
   xmlns:cc="http://creativecommons.org/ns#"
   xmlns:rdf="http://www.w3.org/1999/02/22-rdf-syntax-ns#"
   xmlns:svg="http://www.w3.org/2000/svg"
   xmlns="http://www.w3.org/2000/svg"
   xmlns:sodipodi="http://sodipodi.sourceforge.net/DTD/sodipodi-0.dtd"
   xmlns:inkscape="http://www.inkscape.org/namespaces/inkscape"
   width="512"
   height="512"
   id="svg3003"
   version="1.1"
   inkscape:version="0.48.4 r9939"
   sodipodi:docname="DISAPPOINTED BUT RELIEVED FACE.svg">
  <defs
     id="defs3005" />
  <sodipodi:namedview
     id="base"
     pagecolor="#ffffff"
     bordercolor="#666666"
     borderopacity="1.0"
     inkscape:pageopacity="0.0"
     inkscape:pageshadow="2"
     inkscape:zoom="1.0214844"
     inkscape:cx="312.65357"
     inkscape:cy="245.02671"
     inkscape:current-layer="layer1"
     showgrid="true"
     inkscape:document-units="px"
     inkscape:grid-bbox="true"
     inkscape:window-width="679"
     inkscape:window-height="729"
     inkscape:window-x="0"
     inkscape:window-y="18"
     inkscape:window-maximized="0" />
  <metadata
     id="metadata3008">
    <rdf:RDF>
      <cc:Work
         rdf:about="">
        <dc:format>image/svg+xml</dc:format>
        <dc:type
           rdf:resource="http://purl.org/dc/dcmitype/StillImage" />
        <dc:title></dc:title>
      </cc:Work>
    </rdf:RDF>
  </metadata>
  <g
     id="layer1"
     inkscape:label="Layer 1"
     inkscape:groupmode="layer"
     transform="translate(0,448)">
    <g
       style="font-size:144px;font-style:normal;font-weight:normal;text-align:center;line-height:125%;letter-spacing:0px;word-spacing:0px;text-anchor:middle;fill:#000000;fill-opacity:1;stroke:none;font-family:Sans"
       id="text2983">
      <path
         d="m 183.29492,-222.27344 -19.48242,-19.48242 55.37109,-55.37109 19.48243,19.48242 -55.3711,55.37109 m 145.60547,0 -55.37109,-55.37109 19.48242,-19.48242 55.37109,55.37109 -19.48242,19.48242 m -180.87891,108.28125 c 5.05848,-7.65617 11.00574,-14.97062 17.8418,-21.94336 24.88266,-24.74598 54.96075,-37.11901 90.23438,-37.11914 35.27318,1.3e-4 65.35127,12.37316 90.23437,37.11914 6.97234,6.97274 12.9196,14.28719 17.8418,21.94336 l -23.58399,14.765628 c -3.82842,-6.015568 -8.47685,-11.689388 -13.94531,-17.021488 -19.41433,-19.41397 -42.92993,-29.12099 -70.54687,-29.12109 -27.61738,-0.13662 -51.13298,9.50204 -70.54688,28.91601 -5.33217,5.3321 -9.98061,11.00592 -13.94531,17.021489 l -23.58399,-14.560549 m 225.79102,-150.11718 13.53516,26.25 c 3.69105,7.24627 5.46839,13.60369 5.33203,19.07226 -3.6e-4,5.3322 -1.84606,9.84391 -5.53711,13.53516 -3.69175,3.69156 -8.13511,5.53726 -13.33008,5.53711 -5.19564,1.5e-4 -9.639,-1.84555 -13.33008,-5.53711 -3.69172,-3.69125 -5.53743,-8.20296 -5.53711,-13.53516 -3.2e-4,-5.46857 1.91375,-11.82599 5.74219,-19.07226 l 13.125,-26.25 m -274.189453,65.21484 c -6.3e-5,43.20323 15.244063,80.0489 45.732423,110.537108 30.62486,30.351575 67.53889,45.527341 110.74219,45.527344 43.33958,-3e-6 80.18524,-15.175769 110.53711,-45.527344 30.48792,-30.488208 45.73204,-67.333878 45.73242,-110.537108 -3.8e-4,-43.33965 -15.2445,-80.32203 -45.73242,-110.94727 -30.35187,-30.6247 -67.19753,-45.93719 -110.53711,-45.9375 -43.2033,3.1e-4 -80.11733,15.3128 -110.74219,45.9375 -30.48836,30.62524 -45.732486,67.60762 -45.732423,110.94727 m -27.685547,0 c -3.5e-5,-50.99589 17.978463,-94.47241 53.93555,-130.42969 35.9569,-36.09343 79.36506,-54.14029 130.22461,-54.14062 50.99582,3.3e-4 94.40398,18.04719 130.22461,54.14062 35.81992,35.95728 53.73006,79.4338 53.73046,130.42969 -4e-4,50.85948 -17.91054,94.19928 -53.73046,130.01953 -35.82063,35.8203 -79.22879,53.730438 -130.22461,53.730469 C 205.23811,-15.144562 161.82995,-33.0547 125.87305,-68.875 89.915963,-104.69525 71.937465,-148.03505 71.9375,-198.89453"
         style="font-size:420px"
         id="path3803" />
    </g>
  </g>
</svg>
