<?xml version="1.0" encoding="UTF-8" standalone="no"?>
<!-- Created with Inkscape (http://www.inkscape.org/) -->

<svg
   xmlns:dc="http://purl.org/dc/elements/1.1/"
   xmlns:cc="http://creativecommons.org/ns#"
   xmlns:rdf="http://www.w3.org/1999/02/22-rdf-syntax-ns#"
   xmlns:svg="http://www.w3.org/2000/svg"
   xmlns="http://www.w3.org/2000/svg"
   xmlns:sodipodi="http://sodipodi.sourceforge.net/DTD/sodipodi-0.dtd"
   xmlns:inkscape="http://www.inkscape.org/namespaces/inkscape"
   width="512"
   height="512"
   id="svg3003"
   version="1.1"
   inkscape:version="0.48.4 r9939"
   sodipodi:docname="FACE SAVOURING DELICIOUS FOOD.svg">
  <defs
     id="defs3005" />
  <sodipodi:namedview
     id="base"
     pagecolor="#ffffff"
     bordercolor="#666666"
     borderopacity="1.0"
     inkscape:pageopacity="0.0"
     inkscape:pageshadow="2"
     inkscape:zoom="1.0214844"
     inkscape:cx="312.65357"
     inkscape:cy="245.02671"
     inkscape:current-layer="layer1"
     showgrid="true"
     inkscape:document-units="px"
     inkscape:grid-bbox="true"
     inkscape:window-width="679"
     inkscape:window-height="729"
     inkscape:window-x="683"
     inkscape:window-y="18"
     inkscape:window-maximized="0" />
  <metadata
     id="metadata3008">
    <rdf:RDF>
      <cc:Work
         rdf:about="">
        <dc:format>image/svg+xml</dc:format>
        <dc:type
           rdf:resource="http://purl.org/dc/dcmitype/StillImage" />
        <dc:title></dc:title>
      </cc:Work>
    </rdf:RDF>
  </metadata>
  <g
     id="layer1"
     inkscape:label="Layer 1"
     inkscape:groupmode="layer"
     transform="translate(0,448)">
    <g
       style="font-size:144px;font-style:normal;font-weight:normal;text-align:center;line-height:125%;letter-spacing:0px;word-spacing:0px;text-anchor:middle;fill:#000000;fill-opacity:1;stroke:none;font-family:Sans"
       id="text2983">
      <path
         d="m 267.99219,-232.11719 c -2.3e-4,-19.0037 4.78492,-35.20485 14.35547,-48.60351 9.57005,-13.53491 21.05442,-20.30248 34.45312,-20.30274 13.39815,2.6e-4 24.88251,6.76783 34.45313,20.30274 9.56998,13.39866 14.35514,29.59981 14.35546,48.60351 l -27.68554,0 c -3e-4,-11.34746 -2.11944,-21.05448 -6.35742,-29.12109 -4.10186,-8.2029 -9.02373,-12.30446 -14.76563,-12.30469 -5.74246,2.3e-4 -10.73269,4.10179 -14.9707,12.30469 -4.10183,8.06661 -6.1526,17.77363 -6.15235,29.12109 l -27.68554,0 m -121.40625,0 c -1.1e-4,-19.0037 4.78504,-35.20485 14.35547,-48.60351 9.57018,-13.53491 21.05454,-20.30248 34.45312,-20.30274 13.39827,2.6e-4 24.88263,6.76783 34.45313,20.30274 9.57011,13.39866 14.35526,29.59981 14.35546,48.60351 l -27.68554,0 c -1.8e-4,-11.34746 -2.11932,-21.05448 -6.35742,-29.12109 -4.10174,-8.2029 -9.02361,-12.30446 -14.76563,-12.30469 -5.74234,2.3e-4 -10.73257,4.10179 -14.9707,12.30469 -4.1017,8.06661 -6.15248,17.77363 -6.15235,29.12109 l -27.68554,0 m -46.962893,33.22266 c -6.3e-5,43.20323 15.244063,80.0489 45.732423,110.537108 30.62486,30.351575 67.53889,45.527341 110.74219,45.527344 18.59351,-3e-6 35.95677,-2.802735 52.08984,-8.408203 -13.80885,-6.562488 -25.1565,-17.22654 -34.04297,-31.992188 -5.87914,0.683631 -11.89476,1.025427 -18.04687,1.025391 -35.27363,3.6e-5 -65.35172,-12.372998 -90.23438,-37.119142 -24.88292,-24.74599 -37.32431,-54.75573 -37.32422,-90.0293 l 27.68555,0 c -1.2e-4,27.61733 9.7069,51.13293 29.12109,70.54688 19.55062,19.27742 43.13458,28.91608 70.75196,28.91601 27.61694,7e-5 51.13254,-9.70695 70.54687,-29.12109 19.41375,-19.41395 29.12078,-42.86119 29.12109,-70.3418 l 27.68555,0 c -3.4e-4,29.12123 -8.40854,54.61925 -25.22461,76.49415 7.51921,13.67194 11.27897,27.27545 11.2793,40.810542 l 0,0.820312 c 28.57386,-29.804614 42.86095,-65.693244 42.86133,-107.666014 -3.8e-4,-43.33965 -15.2445,-80.32203 -45.73242,-110.94727 -30.35187,-30.6247 -67.19753,-45.93719 -110.53711,-45.9375 -43.2033,3.1e-4 -80.11733,15.3128 -110.74219,45.9375 -30.48836,30.62524 -45.732486,67.60762 -45.732423,110.94727 m -27.685547,0 c -3.5e-5,-50.99589 17.978463,-94.47241 53.93555,-130.42969 35.9569,-36.09343 79.36506,-54.14029 130.22461,-54.14062 50.99582,3.3e-4 94.40398,18.04719 130.22461,54.14062 35.81992,35.95728 53.73006,79.4338 53.73046,130.42969 -4e-4,50.85948 -17.91054,94.19928 -53.73046,130.01953 -35.82063,35.8203 -79.22879,53.730438 -130.22461,53.730469 C 205.23811,-15.144562 161.82995,-33.0547 125.87305,-68.875 89.915963,-104.69525 71.937465,-148.03505 71.9375,-198.89453 m 265.78125,87.36328 c -10.80107,9.16021 -22.49051,16.201221 -35.06836,21.123047 4.23801,5.468789 8.9548,9.843785 14.15039,13.125 4.92159,3.144559 9.22823,4.716823 12.91992,4.716797 2.18721,2.6e-5 4.16963,-0.546848 5.94727,-1.640625 4.51141,-2.597626 6.83563,-7.792933 6.97265,-15.585938 -3e-4,-0.683549 -0.0687,-1.435501 -0.20507,-2.255859 -0.27375,-6.28901 -1.84601,-12.783142 -4.7168,-19.482422"
         style="font-size:420px"
         id="path3234" />
    </g>
  </g>
</svg>
