<?xml version="1.0" encoding="UTF-8" standalone="no"?>
<!-- Created with Inkscape (http://www.inkscape.org/) -->

<svg
   xmlns:dc="http://purl.org/dc/elements/1.1/"
   xmlns:cc="http://creativecommons.org/ns#"
   xmlns:rdf="http://www.w3.org/1999/02/22-rdf-syntax-ns#"
   xmlns:svg="http://www.w3.org/2000/svg"
   xmlns="http://www.w3.org/2000/svg"
   xmlns:sodipodi="http://sodipodi.sourceforge.net/DTD/sodipodi-0.dtd"
   xmlns:inkscape="http://www.inkscape.org/namespaces/inkscape"
   width="512"
   height="512"
   id="svg3003"
   version="1.1"
   inkscape:version="0.48.4 r9939"
   sodipodi:docname="FACE WITH OPEN MOUTH.svg">
  <defs
     id="defs3005" />
  <sodipodi:namedview
     id="base"
     pagecolor="#ffffff"
     bordercolor="#666666"
     borderopacity="1.0"
     inkscape:pageopacity="0.0"
     inkscape:pageshadow="2"
     inkscape:zoom="1.0214844"
     inkscape:cx="299.7001"
     inkscape:cy="245.02671"
     inkscape:current-layer="layer1"
     showgrid="true"
     inkscape:document-units="px"
     inkscape:grid-bbox="true"
     inkscape:window-width="679"
     inkscape:window-height="729"
     inkscape:window-x="0"
     inkscape:window-y="18"
     inkscape:window-maximized="0" />
  <metadata
     id="metadata3008">
    <rdf:RDF>
      <cc:Work
         rdf:about="">
        <dc:format>image/svg+xml</dc:format>
        <dc:type
           rdf:resource="http://purl.org/dc/dcmitype/StillImage" />
        <dc:title></dc:title>
      </cc:Work>
    </rdf:RDF>
  </metadata>
  <g
     id="layer1"
     inkscape:label="Layer 1"
     inkscape:groupmode="layer"
     transform="translate(0,448)">
    <g
       style="font-size:144px;font-style:normal;font-weight:normal;text-align:center;line-height:125%;letter-spacing:0px;word-spacing:0px;text-anchor:middle;fill:#000000;fill-opacity:1;stroke:none;font-family:Sans"
       id="text2983">
      <path
         d="m 218.97852,-101.48242 c -10.25408,-10.25384 -15.38103,-22.62688 -15.38086,-37.11914 -1.7e-4,-14.49208 5.12678,-26.86512 15.38086,-37.11914 10.25371,-10.25377 22.62674,-15.38072 37.11914,-15.38086 14.49195,1.4e-4 26.86498,5.12709 37.11914,15.38086 10.25364,10.25402 15.38058,22.62706 15.38086,37.11914 -2.8e-4,14.49226 -5.12722,26.8653 -15.38086,37.11914 -10.25416,10.25395 -22.62719,15.380898 -37.11914,15.380858 -14.4924,4e-5 -26.86543,-5.126908 -37.11914,-15.380858 m -50.24415,-154.21875 c -1.3e-4,-8.06619 2.73425,-14.83376 8.20313,-20.30274 5.60532,-5.60523 12.44125,-8.40796 20.50781,-8.4082 7.92952,2.4e-4 14.69709,2.80297 20.30274,8.4082 5.60528,5.46898 8.40801,12.23655 8.4082,20.30274 -1.9e-4,7.92989 -2.80292,14.76582 -8.4082,20.50781 -5.60565,5.60565 -12.37322,8.40838 -20.30274,8.4082 -8.06656,1.8e-4 -14.90249,-2.80255 -20.50781,-8.4082 -5.46888,-5.74199 -8.20326,-12.57792 -8.20313,-20.50781 m 118.53516,0 c -2.5e-4,-8.06619 2.80248,-14.83376 8.4082,-20.30274 5.60521,-5.60523 12.37278,-8.40796 20.30274,-8.4082 7.9294,2.4e-4 14.69697,2.80297 20.30273,8.4082 5.74189,5.46898 8.61298,12.23655 8.61328,20.30274 -3e-4,7.92989 -2.87139,14.76582 -8.61328,20.50781 -5.60576,5.60565 -12.37333,8.40838 -20.30273,8.4082 -8.06668,1.8e-4 -14.90261,-2.80255 -20.50781,-8.4082 -5.46901,-5.74199 -8.20338,-12.57792 -8.20313,-20.50781 M 71.9375,-198.89453 c -3.5e-5,-50.99589 17.978463,-94.47241 53.93555,-130.42969 35.9569,-36.09343 79.36506,-54.14029 130.22461,-54.14062 50.99582,3.3e-4 94.40398,18.04719 130.22461,54.14062 35.81992,35.95728 53.73006,79.4338 53.73046,130.42969 -4e-4,50.85948 -17.91054,94.19928 -53.73046,130.01953 -35.82063,35.8203 -79.22879,53.730438 -130.22461,53.730469 C 205.23811,-15.144562 161.82995,-33.0547 125.87305,-68.875 89.915963,-104.69525 71.937465,-148.03505 71.9375,-198.89453 m 27.685547,0 c -6.3e-5,43.20323 15.244063,80.0489 45.732423,110.537108 30.62486,30.351575 67.53889,45.527341 110.74219,45.527344 43.33958,-3e-6 80.18524,-15.175769 110.53711,-45.527344 30.48792,-30.488208 45.73204,-67.333878 45.73242,-110.537108 -3.8e-4,-43.33965 -15.2445,-80.32203 -45.73242,-110.94727 -30.35187,-30.6247 -67.19753,-45.93719 -110.53711,-45.9375 -43.2033,3.1e-4 -80.11733,15.3128 -110.74219,45.9375 -30.48836,30.62524 -45.732486,67.60762 -45.732423,110.94727"
         style="font-size:420px"
         id="path4020" />
    </g>
  </g>
</svg>
