<?xml version="1.0" encoding="UTF-8" standalone="no"?>
<!-- Created with Inkscape (http://www.inkscape.org/) -->

<svg
   xmlns:dc="http://purl.org/dc/elements/1.1/"
   xmlns:cc="http://creativecommons.org/ns#"
   xmlns:rdf="http://www.w3.org/1999/02/22-rdf-syntax-ns#"
   xmlns:svg="http://www.w3.org/2000/svg"
   xmlns="http://www.w3.org/2000/svg"
   xmlns:sodipodi="http://sodipodi.sourceforge.net/DTD/sodipodi-0.dtd"
   xmlns:inkscape="http://www.inkscape.org/namespaces/inkscape"
   width="512"
   height="512"
   id="svg3003"
   version="1.1"
   inkscape:version="0.48.4 r9939"
   sodipodi:docname="FACE SCREAMING IN FEAR.svg">
  <defs
     id="defs3005" />
  <sodipodi:namedview
     id="base"
     pagecolor="#ffffff"
     bordercolor="#666666"
     borderopacity="1.0"
     inkscape:pageopacity="0.0"
     inkscape:pageshadow="2"
     inkscape:zoom="1.0214844"
     inkscape:cx="299.7001"
     inkscape:cy="245.02671"
     inkscape:current-layer="layer1"
     showgrid="true"
     inkscape:document-units="px"
     inkscape:grid-bbox="true"
     inkscape:window-width="679"
     inkscape:window-height="729"
     inkscape:window-x="0"
     inkscape:window-y="18"
     inkscape:window-maximized="0" />
  <metadata
     id="metadata3008">
    <rdf:RDF>
      <cc:Work
         rdf:about="">
        <dc:format>image/svg+xml</dc:format>
        <dc:type
           rdf:resource="http://purl.org/dc/dcmitype/StillImage" />
        <dc:title></dc:title>
      </cc:Work>
    </rdf:RDF>
  </metadata>
  <g
     id="layer1"
     inkscape:label="Layer 1"
     inkscape:groupmode="layer"
     transform="translate(0,448)">
    <g
       style="font-size:144px;font-style:normal;font-weight:normal;text-align:center;line-height:125%;letter-spacing:0px;word-spacing:0px;text-anchor:middle;fill:#000000;fill-opacity:1;stroke:none;font-family:Sans"
       id="text2983">
      <path
         d="m 315.77539,-211.60937 c -7.92996,1.6e-4 -14.69753,-2.80257 -20.30273,-8.40821 -5.46901,-5.74201 -8.20338,-12.57794 -8.20313,-20.50781 -2.5e-4,-8.0662 2.80248,-14.83378 8.4082,-20.30273 5.60521,-5.60525 12.37278,-8.40798 20.30274,-8.40821 7.9294,2.3e-4 14.69697,2.80296 20.30273,8.40821 5.74189,5.46895 8.61298,12.23653 8.61328,20.30273 -3e-4,7.92987 -2.87139,14.7658 -8.61328,20.50781 -5.60576,5.60564 -12.44169,8.40837 -20.50781,8.40821 m -118.53516,0 c -7.92984,1.6e-4 -14.69741,-2.80257 -20.30273,-8.40821 -5.46888,-5.74201 -8.20326,-12.57794 -8.20313,-20.50781 -1.3e-4,-8.0662 2.73425,-14.83378 8.20313,-20.30273 5.60532,-5.60525 12.37289,-8.40798 20.30273,-8.40821 8.06624,2.3e-4 14.90217,2.80296 20.50782,8.40821 5.60528,5.46895 8.40801,12.23653 8.4082,20.30273 -1.9e-4,8.06659 -2.80292,14.90252 -8.4082,20.50781 -5.60565,5.60564 -12.44158,8.40837 -20.50782,8.40821 m -41.83593,-48.8086 -15.79102,-22.55859 70.54688,-49.42383 15.79101,22.76367 -70.54687,49.21875 m 201.38672,0 -70.54688,-49.21875 15.79102,-22.76367 70.54687,49.42383 -15.79101,22.55859 m -137.8125,158.93555 c -10.25408,-10.25384 -15.38103,-22.62688 -15.38086,-37.11914 -1.7e-4,-14.49208 5.12678,-26.86512 15.38086,-37.11914 10.25371,-10.25377 22.62674,-15.38072 37.11914,-15.38086 14.49195,1.4e-4 26.86498,5.12709 37.11914,15.38086 10.25364,10.25402 15.38058,22.62706 15.38086,37.11914 -2.8e-4,14.49226 -5.12722,26.8653 -15.38086,37.11914 -10.25416,10.25395 -22.62719,15.380898 -37.11914,15.380858 -14.4924,4e-5 -26.86543,-5.126908 -37.11914,-15.380858 m -109.10157,95.7714825 0,-41.6308595 C 100.03314,-55.818349 92.17182,-63.132795 86.292969,-69.285156 80.414019,-75.574189 75.833946,-82.068323 72.552734,-88.767578 53.68553,-126.91203 44.251946,-166.15027 44.251953,-206.48242 c -7e-6,-11.34749 3.554677,-20.64435 10.664063,-27.89063 7.10935,-7.38261 14.833951,-11.75761 23.173828,-13.125 8.066357,-30.48805 23.994076,-57.76341 47.783206,-81.82617 35.9569,-36.09343 79.36506,-54.14029 130.22461,-54.14062 50.99582,3.3e-4 94.40398,18.04719 130.22461,54.14062 23.78869,23.92604 39.7164,51.20141 47.7832,81.82617 8.33944,1.36739 16.06404,5.74239 23.17383,13.125 7.10894,7.24628 10.66363,16.54314 10.66406,27.89063 -4.3e-4,40.33215 -9.43402,79.57039 -28.30078,117.714842 -3.28165,6.699255 -7.86172,13.193389 -13.74024,19.482422 -5.87929,6.152361 -13.74061,13.466807 -23.58398,21.943359 l 0,41.6308595 -27.68555,0 0,-47.3730465 c -3.4e-4,-4.921863 2.59732,-9.501937 7.79297,-13.740235 17.63636,-15.039026 28.43713,-26.455031 32.40234,-34.248051 16.6793,-32.81241 25.15585,-67.94909 25.42969,-105.41015 -4e-4,-3.82796 -1.36759,-7.10921 -4.10156,-9.84375 -2.59805,-2.7342 -5.8793,-4.10139 -9.84375,-4.10156 -3.96523,1.7e-4 -7.24648,1.23064 -9.84375,3.6914 -2.46131,2.32439 -4.10194,10.93766 -4.92188,25.83985 -1.91443,33.22276 -10.04919,57.55868 -24.40429,73.00781 -5.60582,6.01569 -12.23667,11.55279 -19.89258,16.61133 l -19.27734,13.124996 c -5.33234,3.828164 -8.95538,7.793003 -10.86914,11.894532 -1.77765,4.101588 -2.66632,10.459004 -2.66602,19.072265 l 0,51.4746095 -27.89063,0 0,-15.5859375 c -15.03931,4.101534 -31.5139,6.152313 -49.42382,6.152344 -17.77364,-3.1e-5 -34.93183,-2.187529 -51.47461,-6.5625 l 0,15.9960935 -27.89063,0 0,-51.4746095 c -1.4e-4,-8.613261 -0.95717,-14.970677 -2.87109,-19.072265 -1.77748,-4.101529 -5.33216,-8.066368 -10.66406,-11.894532 l -19.27735,-13.124996 c -7.65635,-5.05854 -14.2872,-10.59564 -19.89258,-16.61133 -14.35554,-15.44913 -22.4903,-39.78505 -24.40429,-73.00781 -0.820378,-14.90219 -2.52936,-23.51546 -5.126956,-25.83985 -2.460993,-2.46076 -5.673881,-3.69123 -9.638672,-3.6914 -3.964888,1.7e-4 -7.314494,1.36736 -10.048828,4.10156 -2.597692,2.73454 -3.896519,6.01579 -3.896484,9.84375 0.273402,37.46106 8.749956,72.59774 25.429687,105.41015 3.964783,7.79302 14.765553,19.209025 32.402343,34.248051 5.19522,4.238298 7.79287,8.818372 7.79297,13.740235 l 0,47.3730465 -27.68555,0 m 95.77149,-44.9121095 c 16.26934,5.195312 33.42753,7.792966 51.47461,7.792969 18.18335,-3e-6 34.65795,-2.529298 49.42382,-7.587891 l 0,-6.767578 c -2.6e-4,-12.167945 1.84544,-22.285123 5.53711,-30.351562 6.56222,-13.808541 19.75557,-26.591731 39.58008,-38.349611 7.65593,-4.64835 12.64616,-8.27139 14.97071,-10.86914 8.20278,-9.29677 13.46645,-22.14832 15.79101,-38.55469 0.27309,-2.05065 0.68325,-7.65611 1.23047,-16.8164 0.54653,-9.16 1.64028,-17.5682 3.28125,-25.22461 1.64027,-7.38264 5.94691,-14.35529 12.91992,-20.91797 2.05042,-1.91387 4.23792,-3.55449 6.5625,-4.92188 -6.8363,-24.74587 -20.02964,-46.96264 -39.58008,-66.65039 -30.35186,-30.6247 -67.19752,-45.93719 -110.53711,-45.9375 -43.34002,3.1e-4 -80.3224,15.3128 -110.94726,45.9375 -19.55087,19.55103 -32.81258,41.69944 -39.78516,66.44532 2.46087,1.5041 4.71673,3.21308 6.76758,5.12695 6.97257,6.56268 11.27921,13.60369 12.91992,21.12305 1.64054,7.51969 2.73429,15.85953 3.28125,25.01953 0.54679,9.16029 0.95694,14.76575 1.23047,16.8164 2.32412,16.40637 7.58779,29.25792 15.79102,38.55469 2.3241,2.59775 7.31433,6.22079 14.9707,10.86914 19.82408,11.75788 33.01742,24.54107 39.58008,38.349611 3.69124,8.066439 5.53694,18.183617 5.53711,30.351562 l 0,6.5625"
         style="font-size:420px"
         id="path4086" />
    </g>
  </g>
</svg>
