<?xml version="1.0" encoding="UTF-8" standalone="no"?>
<!-- Created with Inkscape (http://www.inkscape.org/) -->

<svg
   xmlns:dc="http://purl.org/dc/elements/1.1/"
   xmlns:cc="http://creativecommons.org/ns#"
   xmlns:rdf="http://www.w3.org/1999/02/22-rdf-syntax-ns#"
   xmlns:svg="http://www.w3.org/2000/svg"
   xmlns="http://www.w3.org/2000/svg"
   xmlns:sodipodi="http://sodipodi.sourceforge.net/DTD/sodipodi-0.dtd"
   xmlns:inkscape="http://www.inkscape.org/namespaces/inkscape"
   width="512"
   height="512"
   id="svg3003"
   version="1.1"
   inkscape:version="0.48.4 r9939"
   sodipodi:docname="FEARFUL FACE.svg">
  <defs
     id="defs3005" />
  <sodipodi:namedview
     id="base"
     pagecolor="#ffffff"
     bordercolor="#666666"
     borderopacity="1.0"
     inkscape:pageopacity="0.0"
     inkscape:pageshadow="2"
     inkscape:zoom="1.0214844"
     inkscape:cx="312.65357"
     inkscape:cy="245.02671"
     inkscape:current-layer="layer1"
     showgrid="true"
     inkscape:document-units="px"
     inkscape:grid-bbox="true"
     inkscape:window-width="679"
     inkscape:window-height="729"
     inkscape:window-x="0"
     inkscape:window-y="18"
     inkscape:window-maximized="0" />
  <metadata
     id="metadata3008">
    <rdf:RDF>
      <cc:Work
         rdf:about="">
        <dc:format>image/svg+xml</dc:format>
        <dc:type
           rdf:resource="http://purl.org/dc/dcmitype/StillImage" />
        <dc:title></dc:title>
      </cc:Work>
    </rdf:RDF>
  </metadata>
  <g
     id="layer1"
     inkscape:label="Layer 1"
     inkscape:groupmode="layer"
     transform="translate(0,448)">
    <g
       style="font-size:144px;font-style:normal;font-weight:normal;text-align:center;line-height:125%;letter-spacing:0px;word-spacing:0px;text-anchor:middle;fill:#000000;fill-opacity:1;stroke:none;font-family:Sans"
       id="text2983">
      <path
         d="m 277.83594,-261.23828 c -2.4e-4,11.21114 3.9646,20.50801 11.89453,27.89062 7.92943,7.383 16.95285,11.0744 27.07031,11.07422 11.6208,1.8e-4 20.98603,-3.96466 28.0957,-11.89453 7.24578,-8.06621 10.86883,-17.08964 10.86914,-27.07031 -3.1e-4,-10.80056 -3.82843,-19.9607 -11.48437,-27.48047 -7.51983,-7.656 -16.67998,-11.48412 -27.48047,-11.48437 -10.39089,2.5e-4 -19.48268,3.82837 -27.27539,11.48437 -7.79321,7.51977 -11.68969,16.67991 -11.68945,27.48047 m -93.72071,146.01562 143.75977,0 c -3.28154,-13.12491 -9.63895,-24.88271 -19.07227,-35.27343 -14.62916,-15.85926 -32.26586,-23.78894 -52.91015,-23.78907 -20.64473,1.3e-4 -38.21307,7.99817 -52.70508,23.99414 -9.43375,10.39072 -15.79117,22.08016 -19.07227,35.06836 m 175.3418,27.685551 -206.92383,0 c -1.1e-4,-31.718681 10.04871,-58.720601 30.14649,-81.005861 20.23421,-22.28501 44.63848,-33.42758 73.21289,-33.42773 28.71069,1.5e-4 53.11496,11.14272 73.21289,33.42773 20.23406,22.28526 30.35124,49.28718 30.35156,81.005861 M 99.623047,-198.89453 c -6.3e-5,43.20323 15.244063,80.0489 45.732423,110.537108 30.62486,30.351575 67.53889,45.527341 110.74219,45.527344 43.33958,-3e-6 80.18524,-15.175769 110.53711,-45.527344 30.48792,-30.488208 45.73204,-67.333878 45.73242,-110.537108 -3.8e-4,-21.19123 -3.62342,-40.87871 -10.86914,-59.0625 l 0,38.14453 -13.94532,0 0,-64.59961 c -4.1019,-6.28882 -8.68198,-12.23608 -13.74023,-17.8418 l 0,82.44141 -13.94531,0 0,-18.25195 c -4.10188,7.38299 -9.91242,13.53533 -17.43164,18.45703 -7.38311,4.78532 -15.92803,7.1779 -25.63477,7.17773 -9.7073,1.7e-4 -18.38893,-2.46077 -26.04492,-7.38281 l -13.94531,0 0,-13.125 c -5.87914,-8.20293 -8.81859,-17.63651 -8.81836,-28.30078 -2.3e-4,-10.66384 2.93922,-20.09742 8.81836,-28.30078 l 0,-65.00977 c -4.51196,-0.54656 -9.09203,-0.88836 -13.74024,-1.02539 l 0,135.76172 -13.94531,0 0,-135.76172 c -4.64864,0.13703 -9.22872,0.47883 -13.74023,1.02539 l 0,65.00977 c 5.8787,8.20336 8.81815,17.63694 8.81835,28.30078 -2e-4,10.66427 -2.93965,20.09785 -8.81835,28.30078 l 0,13.125 -13.94532,0 c -7.65642,4.92204 -16.33806,7.38298 -26.04492,7.38281 -9.70718,1.7e-4 -18.32045,-2.39241 -25.83984,-7.17773 -7.51966,-4.78498 -13.26184,-10.93732 -17.22657,-18.45703 l 0,18.25195 -13.94531,0 0,-82.64648 c -5.05869,5.74243 -9.63876,11.75805 -13.74023,18.04687 l 0,64.59961 -13.94531,0 0,-38.55469 c -7.38288,18.32051 -11.074286,38.14471 -11.074223,59.47266 m -27.685547,0 c -3.5e-5,-50.99589 17.978463,-94.47241 53.93555,-130.42969 35.9569,-36.09343 79.36506,-54.14029 130.22461,-54.14062 50.99582,3.3e-4 94.40398,18.04719 130.22461,54.14062 35.81992,35.95728 53.73006,79.4338 53.73046,130.42969 -4e-4,50.85948 -17.91054,94.19928 -53.73046,130.01953 -35.82063,35.8203 -79.22879,53.730438 -130.22461,53.730469 C 205.23811,-15.144562 161.82995,-33.0547 125.87305,-68.875 89.915963,-104.69525 71.937465,-148.03505 71.9375,-198.89453 m 233.17383,-62.34375 c -2.7e-4,-3.28103 1.16184,-6.0154 3.48633,-8.20313 2.32394,-2.32399 5.05831,-3.4861 8.20312,-3.48632 3.28097,2.2e-4 6.01534,1.16233 8.20313,3.48632 2.32392,2.18773 3.48603,4.9221 3.48632,8.20313 -2.9e-4,3.00802 -1.09404,5.7424 -3.28125,8.20312 -2.05106,2.32443 -4.85379,3.48654 -8.4082,3.48633 -3.00809,2.1e-4 -5.74246,-1.09354 -8.20312,-3.28125 -2.32449,-2.18729 -3.4866,-4.99002 -3.48633,-8.4082 m -125.09766,-46.55274 c 4.37485,-1.36692 8.95493,-2.11887 13.74024,-2.25585 l 0,-33.22266 c -4.78531,2.05108 -9.36539,4.30693 -13.74024,6.76758 l 0,28.71093 m 54.3457,46.55274 c -1.9e-4,-10.80056 -3.89667,-19.9607 -11.68945,-27.48047 -7.79314,-7.656 -16.88493,-11.48412 -27.27539,-11.48437 -10.80093,2.5e-4 -20.02943,3.82837 -27.68555,11.48437 -7.51965,7.51977 -11.27941,16.67991 -11.27929,27.48047 -1.2e-4,9.98067 3.55456,19.0041 10.66406,27.07031 7.24596,7.92987 16.67954,11.89471 28.30078,11.89453 10.11702,1.8e-4 19.14045,-3.69122 27.07031,-11.07422 7.9295,-7.38261 11.89434,-16.67948 11.89453,-27.89062 m -27.27539,0 c -1.7e-4,3.41818 -1.23063,6.22091 -3.6914,8.4082 -2.32438,2.18771 -4.9904,3.28146 -7.99805,3.28125 -3.55484,2.1e-4 -6.42593,-1.1619 -8.61328,-3.48633 -2.05093,-2.46072 -3.07632,-5.1951 -3.07617,-8.20312 -1.5e-4,-3.28103 1.0936,-6.0154 3.28125,-8.20313 2.32406,-2.32399 5.1268,-3.4861 8.4082,-3.48632 3.14437,2.2e-4 5.87874,1.16233 8.20313,3.48632 2.32405,2.18773 3.48615,4.9221 3.48632,8.20313 m 111.35743,-82.23633 0,33.42774 c 4.92158,0.13698 9.50166,0.88893 13.74023,2.25585 l 0,-28.71093 c -4.37529,-2.59737 -8.95536,-4.92158 -13.74023,-6.97266 m -13.94532,-5.12695 c -4.51198,-1.36689 -9.09205,-2.59735 -13.74023,-3.69141 l 0,49.62891 c 4.23802,-2.73412 8.8181,-4.71654 13.74023,-5.94727 l 0,-39.99023 m 55.3711,32.19726 c -4.51204,-4.10128 -9.09211,-7.79269 -13.74024,-11.07422 l 0,27.07032 c 5.87859,4.51197 10.45867,9.84399 13.74024,15.99609 l 0,-31.99219 m -193.79883,-11.07422 c -4.78528,3.41825 -9.36535,7.10965 -13.74024,11.07422 l 0,31.99219 c 3.41786,-6.1521 7.99793,-11.48412 13.74024,-15.99609 l 0,-27.07032 m 55.37109,-24.81445 c -4.64861,0.95734 -9.22869,2.18781 -13.74023,3.69141 l 0,39.99023 c 4.9217,1.23073 9.50177,3.21315 13.74023,5.94727 l 0,-49.62891"
         style="font-size:420px"
         id="path3869" />
    </g>
  </g>
</svg>
