<?xml version="1.0" encoding="UTF-8" standalone="no"?>
<!-- Created with Inkscape (http://www.inkscape.org/) -->

<svg
   xmlns:dc="http://purl.org/dc/elements/1.1/"
   xmlns:cc="http://creativecommons.org/ns#"
   xmlns:rdf="http://www.w3.org/1999/02/22-rdf-syntax-ns#"
   xmlns:svg="http://www.w3.org/2000/svg"
   xmlns="http://www.w3.org/2000/svg"
   xmlns:sodipodi="http://sodipodi.sourceforge.net/DTD/sodipodi-0.dtd"
   xmlns:inkscape="http://www.inkscape.org/namespaces/inkscape"
   width="512"
   height="512"
   id="svg3003"
   version="1.1"
   inkscape:version="0.48.4 r9939"
   sodipodi:docname="FLUSHED FACE.svg">
  <defs
     id="defs3005" />
  <sodipodi:namedview
     id="base"
     pagecolor="#ffffff"
     bordercolor="#666666"
     borderopacity="1.0"
     inkscape:pageopacity="0.0"
     inkscape:pageshadow="2"
     inkscape:zoom="1.0214844"
     inkscape:cx="299.7001"
     inkscape:cy="245.02671"
     inkscape:current-layer="layer1"
     showgrid="true"
     inkscape:document-units="px"
     inkscape:grid-bbox="true"
     inkscape:window-width="679"
     inkscape:window-height="729"
     inkscape:window-x="0"
     inkscape:window-y="18"
     inkscape:window-maximized="0" />
  <metadata
     id="metadata3008">
    <rdf:RDF>
      <cc:Work
         rdf:about="">
        <dc:format>image/svg+xml</dc:format>
        <dc:type
           rdf:resource="http://purl.org/dc/dcmitype/StillImage" />
        <dc:title></dc:title>
      </cc:Work>
    </rdf:RDF>
  </metadata>
  <g
     id="layer1"
     inkscape:label="Layer 1"
     inkscape:groupmode="layer"
     transform="translate(0,448)">
    <g
       style="font-size:144px;font-style:normal;font-weight:normal;text-align:center;line-height:125%;letter-spacing:0px;word-spacing:0px;text-anchor:middle;fill:#000000;fill-opacity:1;stroke:none;font-family:Sans"
       id="text2983">
      <path
         d="m 99.623047,-198.89453 c -6.3e-5,43.20323 15.244063,80.0489 45.732423,110.537108 30.62486,30.351575 67.53889,45.527341 110.74219,45.527344 43.33958,-3e-6 80.18524,-15.175769 110.53711,-45.527344 30.48792,-30.488208 45.73204,-67.333878 45.73242,-110.537108 -3.8e-4,-23.24201 -4.37537,-44.63848 -13.125,-64.18945 l 0,77.72461 -13.94532,0 0,-102.33399 c -4.1019,-6.01538 -8.75033,-11.75756 -13.94531,-17.22656 l 0,21.12305 1.23047,0.82031 -1.23047,1.8457 0,95.77149 -13.94531,0 0,-27.89063 -10.66406,0 0,27.89063 -13.94532,0 0,-27.89063 -13.94531,0 0,27.89063 -13.94531,0 0,-27.89063 -13.94531,0 0,27.89063 -13.94532,0 0,-116.48438 13.94532,0 0,60.9082 13.94531,0 0,-55.78125 -18.66211,-12.91992 15.79102,-22.76367 30.76171,21.5332 0,-25.22461 c -22.8323,-13.12469 -48.39868,-19.68719 -76.69921,-19.6875 -28.30098,3.1e-4 -53.86736,6.56281 -76.69922,19.6875 l 0,25.22461 30.76172,-21.5332 15.79101,22.76367 -18.66211,12.91992 0,55.78125 13.94531,0 0,-60.9082 13.94532,0 0,116.48438 -13.94532,0 0,-27.89063 -13.94531,0 0,27.89063 -13.94531,0 0,-27.89063 -13.94531,0 0,27.89063 -13.94532,0 0,-27.89063 -10.66406,0 0,27.89063 -13.94531,0 0,-95.77149 -1.23047,-1.8457 1.23047,-0.82031 0,-21.32813 c -5.05869,5.469 -9.70713,11.21119 -13.94531,17.22656 l 0,102.53907 -13.94531,0 0,-78.13477 c -8.88679,19.6877 -13.330146,41.22088 -13.330083,64.59961 m -27.685547,0 c -3.5e-5,-50.99589 17.978463,-94.47241 53.93555,-130.42969 35.9569,-36.09343 79.36506,-54.14029 130.22461,-54.14062 50.99582,3.3e-4 94.40398,18.04719 130.22461,54.14062 35.81992,35.95728 53.73006,79.4338 53.73046,130.42969 -4e-4,50.85948 -17.91054,94.19928 -53.73046,130.01953 -35.82063,35.8203 -79.22879,53.730438 -130.22461,53.730469 C 205.23811,-15.144562 161.82995,-33.0547 125.87305,-68.875 89.915963,-104.69525 71.937465,-148.03505 71.9375,-198.89453 m 165.49805,78.95508 c -5.05879,-5.19524 -7.58809,-11.41593 -7.58789,-18.66211 -2e-4,-7.246 2.5291,-13.39833 7.58789,-18.45703 5.1951,-5.1952 11.4158,-7.79285 18.66211,-7.79297 7.24586,1.2e-4 13.3982,2.59777 18.45703,7.79297 5.19507,5.0587 7.79272,11.21103 7.79297,18.45703 -2.5e-4,7.24618 -2.5979,13.46687 -7.79297,18.66211 -5.05883,5.05866 -11.21117,7.58795 -18.45703,7.58789 -7.24631,6e-5 -13.46701,-2.52923 -18.66211,-7.58789 m 11.68945,-65.41992 0,-116.48438 13.94531,0 0,116.48438 -13.94531,0 m 69.72656,-55.57618 13.94531,0 0,-36.29882 -13.94531,-9.63868 0,45.9375 m 27.89063,0 10.66406,0 0,-20.30273 -0.61523,0.82031 -10.04883,-6.97265 0,26.45507 m 0,-86.13281 0,26.04492 10.66406,7.38282 0,-25.01954 c -3.41829,-3.00753 -6.97297,-5.81026 -10.66406,-8.4082 m -153.39844,86.13281 0,-45.9375 -13.94531,9.63868 0,36.29882 13.94531,0 m -27.89063,-86.13281 c -3.69153,2.59794 -7.24621,5.46903 -10.66406,8.61328 l 0,24.81446 10.66406,-7.38282 0,-26.04492 m 0,86.13281 0,-26.45507 -10.04882,6.97265 -0.61524,-0.82031 0,20.30273 10.66406,0"
         style="font-size:420px"
         id="path4130" />
    </g>
  </g>
</svg>
