<?xml version="1.0" encoding="UTF-8" standalone="no"?>
<!-- Created with Inkscape (http://www.inkscape.org/) -->

<svg
   xmlns:dc="http://purl.org/dc/elements/1.1/"
   xmlns:cc="http://creativecommons.org/ns#"
   xmlns:rdf="http://www.w3.org/1999/02/22-rdf-syntax-ns#"
   xmlns:svg="http://www.w3.org/2000/svg"
   xmlns="http://www.w3.org/2000/svg"
   xmlns:sodipodi="http://sodipodi.sourceforge.net/DTD/sodipodi-0.dtd"
   xmlns:inkscape="http://www.inkscape.org/namespaces/inkscape"
   width="512"
   height="512"
   id="svg3003"
   version="1.1"
   inkscape:version="0.48.4 r9939"
   sodipodi:docname="HUSHED FACE.svg">
  <defs
     id="defs3005" />
  <sodipodi:namedview
     id="base"
     pagecolor="#ffffff"
     bordercolor="#666666"
     borderopacity="1.0"
     inkscape:pageopacity="0.0"
     inkscape:pageshadow="2"
     inkscape:zoom="1.0214844"
     inkscape:cx="299.7001"
     inkscape:cy="245.02671"
     inkscape:current-layer="layer1"
     showgrid="true"
     inkscape:document-units="px"
     inkscape:grid-bbox="true"
     inkscape:window-width="679"
     inkscape:window-height="729"
     inkscape:window-x="0"
     inkscape:window-y="18"
     inkscape:window-maximized="0" />
  <metadata
     id="metadata3008">
    <rdf:RDF>
      <cc:Work
         rdf:about="">
        <dc:format>image/svg+xml</dc:format>
        <dc:type
           rdf:resource="http://purl.org/dc/dcmitype/StillImage" />
        <dc:title></dc:title>
      </cc:Work>
    </rdf:RDF>
  </metadata>
  <g
     id="layer1"
     inkscape:label="Layer 1"
     inkscape:groupmode="layer"
     transform="translate(0,448)">
    <g
       style="font-size:144px;font-style:normal;font-weight:normal;text-align:center;line-height:125%;letter-spacing:0px;word-spacing:0px;text-anchor:middle;fill:#000000;fill-opacity:1;stroke:none;font-family:Sans"
       id="text2983">
      <path
         d="m 356.79102,-260.41797 -70.54688,-49.21875 15.79102,-22.76367 70.54687,49.42383 -15.79101,22.55859 m -201.38672,0 -15.79102,-22.55859 70.54688,-49.42383 15.79101,22.76367 -70.54687,49.21875 m 13.33007,19.89258 c -1.3e-4,-8.0662 2.73425,-14.83378 8.20313,-20.30273 5.60532,-5.60525 12.44125,-8.40798 20.50781,-8.40821 7.92952,2.3e-4 14.69709,2.80296 20.30274,8.40821 5.60528,5.46895 8.40801,12.23653 8.4082,20.30273 -1.9e-4,8.06659 -2.80292,14.90252 -8.4082,20.50781 -5.60565,5.60564 -12.37322,8.40837 -20.30274,8.40821 -8.06656,1.6e-4 -14.90249,-2.80257 -20.50781,-8.40821 -5.46888,-5.74201 -8.20326,-12.57794 -8.20313,-20.50781 m 118.53516,0 c -2.5e-4,-8.0662 2.80248,-14.83378 8.4082,-20.30273 5.60521,-5.60525 12.37278,-8.40798 20.30274,-8.40821 7.9294,2.3e-4 14.69697,2.80296 20.30273,8.40821 5.74189,5.46895 8.61298,12.23653 8.61328,20.30273 -3e-4,7.92987 -2.87139,14.7658 -8.61328,20.50781 -5.60576,5.60564 -12.37333,8.40837 -20.30273,8.40821 -8.06668,1.6e-4 -14.90261,-2.80257 -20.50781,-8.40821 -5.46901,-5.74201 -8.20338,-12.57794 -8.20313,-20.50781 m -49.83398,120.58594 c -5.05879,-5.19524 -7.58809,-11.41593 -7.58789,-18.66211 -2e-4,-7.246 2.5291,-13.39833 7.58789,-18.45703 5.1951,-5.1952 11.4158,-7.79285 18.66211,-7.79297 7.24586,1.2e-4 13.3982,2.59777 18.45703,7.79297 5.19507,5.0587 7.79272,11.21103 7.79297,18.45703 -2.5e-4,7.24618 -2.5979,13.46687 -7.79297,18.66211 -5.05883,5.05866 -11.21117,7.58795 -18.45703,7.58789 -7.24631,6e-5 -13.46701,-2.52923 -18.66211,-7.58789 M 71.9375,-198.89453 c -3.5e-5,-50.99589 17.978463,-94.47241 53.93555,-130.42969 35.9569,-36.09343 79.36506,-54.14029 130.22461,-54.14062 50.99582,3.3e-4 94.40398,18.04719 130.22461,54.14062 35.81992,35.95728 53.73006,79.4338 53.73046,130.42969 -4e-4,50.85948 -17.91054,94.19928 -53.73046,130.01953 -35.82063,35.8203 -79.22879,53.730438 -130.22461,53.730469 C 205.23811,-15.144562 161.82995,-33.0547 125.87305,-68.875 89.915963,-104.69525 71.937465,-148.03505 71.9375,-198.89453 m 27.685547,0 c -6.3e-5,43.20323 15.244063,80.0489 45.732423,110.537108 30.62486,30.351575 67.53889,45.527341 110.74219,45.527344 43.33958,-3e-6 80.18524,-15.175769 110.53711,-45.527344 30.48792,-30.488208 45.73204,-67.333878 45.73242,-110.537108 -3.8e-4,-43.33965 -15.2445,-80.32203 -45.73242,-110.94727 -30.35187,-30.6247 -67.19753,-45.93719 -110.53711,-45.9375 -43.2033,3.1e-4 -80.11733,15.3128 -110.74219,45.9375 -30.48836,30.62524 -45.732486,67.60762 -45.732423,110.94727"
         style="font-size:420px"
         id="path4042" />
    </g>
  </g>
</svg>
