<?xml version="1.0" encoding="UTF-8" standalone="no"?>
<!-- Created with Inkscape (http://www.inkscape.org/) -->

<svg
   xmlns:dc="http://purl.org/dc/elements/1.1/"
   xmlns:cc="http://creativecommons.org/ns#"
   xmlns:rdf="http://www.w3.org/1999/02/22-rdf-syntax-ns#"
   xmlns:svg="http://www.w3.org/2000/svg"
   xmlns="http://www.w3.org/2000/svg"
   xmlns:sodipodi="http://sodipodi.sourceforge.net/DTD/sodipodi-0.dtd"
   xmlns:inkscape="http://www.inkscape.org/namespaces/inkscape"
   width="512"
   height="512"
   id="svg3003"
   version="1.1"
   inkscape:version="0.48.4 r9939"
   sodipodi:docname="KISSING FACE WITH SMILING EYES.svg">
  <defs
     id="defs3005" />
  <sodipodi:namedview
     id="base"
     pagecolor="#ffffff"
     bordercolor="#666666"
     borderopacity="1.0"
     inkscape:pageopacity="0.0"
     inkscape:pageshadow="2"
     inkscape:zoom="1.0214844"
     inkscape:cx="312.65357"
     inkscape:cy="245.02671"
     inkscape:current-layer="layer1"
     showgrid="true"
     inkscape:document-units="px"
     inkscape:grid-bbox="true"
     inkscape:window-width="679"
     inkscape:window-height="729"
     inkscape:window-x="0"
     inkscape:window-y="18"
     inkscape:window-maximized="0" />
  <metadata
     id="metadata3008">
    <rdf:RDF>
      <cc:Work
         rdf:about="">
        <dc:format>image/svg+xml</dc:format>
        <dc:type
           rdf:resource="http://purl.org/dc/dcmitype/StillImage" />
        <dc:title></dc:title>
      </cc:Work>
    </rdf:RDF>
  </metadata>
  <g
     id="layer1"
     inkscape:label="Layer 1"
     inkscape:groupmode="layer"
     transform="translate(0,448)">
    <g
       style="font-size:144px;font-style:normal;font-weight:normal;text-align:center;line-height:125%;letter-spacing:0px;word-spacing:0px;text-anchor:middle;fill:#000000;fill-opacity:1;stroke:none;font-family:Sans"
       id="text2983">
      <path
         d="m 146.58594,-232.11719 c -1.1e-4,-19.0037 4.78504,-35.20485 14.35547,-48.60351 9.57018,-13.53491 21.05454,-20.30248 34.45312,-20.30274 13.39827,2.6e-4 24.88263,6.76783 34.45313,20.30274 9.57011,13.39866 14.35526,29.59981 14.35546,48.60351 l -27.68554,0 c -1.8e-4,-11.34746 -2.11932,-21.05448 -6.35742,-29.12109 -4.10174,-8.2029 -9.02361,-12.30446 -14.76563,-12.30469 -5.74234,2.3e-4 -10.73257,4.10179 -14.9707,12.30469 -4.1017,8.06661 -6.15248,17.77363 -6.15235,29.12109 l -27.68554,0 m 121.40625,0 c -2.3e-4,-19.0037 4.78492,-35.20485 14.35547,-48.60351 9.57005,-13.53491 21.05442,-20.30248 34.45312,-20.30274 13.39815,2.6e-4 24.88251,6.76783 34.45313,20.30274 9.56998,13.39866 14.35514,29.59981 14.35546,48.60351 l -27.68554,0 c -3e-4,-11.34746 -2.11944,-21.05448 -6.35742,-29.12109 -4.10186,-8.2029 -9.02373,-12.30446 -14.76563,-12.30469 -5.74246,2.3e-4 -10.73269,4.10179 -14.9707,12.30469 -4.10183,8.06661 -6.1526,17.77363 -6.15235,29.12109 l -27.68554,0 m -22.96875,85.92774 16.40625,-12.71485 -29.53125,-15.99609 13.33008,-24.19922 53.11523,28.91602 0,18.04687 -12.30469,9.4336 12.30469,9.43359 0,18.04687 -53.11523,28.916019 -13.33008,-24.199219 29.53125,-15.99609 -16.40625,-12.71485 0,-6.97265 M 71.9375,-198.89453 c -3.5e-5,-50.99589 17.978463,-94.47241 53.93555,-130.42969 35.9569,-36.09343 79.36506,-54.14029 130.22461,-54.14062 50.99582,3.3e-4 94.40398,18.04719 130.22461,54.14062 35.81992,35.95728 53.73006,79.4338 53.73046,130.42969 -4e-4,50.85948 -17.91054,94.19928 -53.73046,130.01953 -35.82063,35.8203 -79.22879,53.730438 -130.22461,53.730469 C 205.23811,-15.144562 161.82995,-33.0547 125.87305,-68.875 89.915963,-104.69525 71.937465,-148.03505 71.9375,-198.89453 m 27.685547,0 c -6.3e-5,43.20323 15.244063,80.0489 45.732423,110.537108 30.62486,30.351575 67.53889,45.527341 110.74219,45.527344 43.33958,-3e-6 80.18524,-15.175769 110.53711,-45.527344 30.48792,-30.488208 45.73204,-67.333878 45.73242,-110.537108 -3.8e-4,-43.33965 -15.2445,-80.32203 -45.73242,-110.94727 -30.35187,-30.6247 -67.19753,-45.93719 -110.53711,-45.9375 -43.2033,3.1e-4 -80.11733,15.3128 -110.74219,45.9375 -30.48836,30.62524 -45.732486,67.60762 -45.732423,110.94727"
         style="font-size:420px"
         id="path3542" />
    </g>
  </g>
</svg>
