<?xml version="1.0" encoding="UTF-8" standalone="no"?>
<!-- Created with Inkscape (http://www.inkscape.org/) -->

<svg
   xmlns:dc="http://purl.org/dc/elements/1.1/"
   xmlns:cc="http://creativecommons.org/ns#"
   xmlns:rdf="http://www.w3.org/1999/02/22-rdf-syntax-ns#"
   xmlns:svg="http://www.w3.org/2000/svg"
   xmlns="http://www.w3.org/2000/svg"
   xmlns:sodipodi="http://sodipodi.sourceforge.net/DTD/sodipodi-0.dtd"
   xmlns:inkscape="http://www.inkscape.org/namespaces/inkscape"
   width="512"
   height="512"
   id="svg3003"
   version="1.1"
   inkscape:version="0.48.4 r9939"
   sodipodi:docname="LOUDLY CRYING FACE.svg">
  <defs
     id="defs3005" />
  <sodipodi:namedview
     id="base"
     pagecolor="#ffffff"
     bordercolor="#666666"
     borderopacity="1.0"
     inkscape:pageopacity="0.0"
     inkscape:pageshadow="2"
     inkscape:zoom="1.0214844"
     inkscape:cx="312.65357"
     inkscape:cy="245.02671"
     inkscape:current-layer="layer1"
     showgrid="true"
     inkscape:document-units="px"
     inkscape:grid-bbox="true"
     inkscape:window-width="679"
     inkscape:window-height="729"
     inkscape:window-x="0"
     inkscape:window-y="18"
     inkscape:window-maximized="0" />
  <metadata
     id="metadata3008">
    <rdf:RDF>
      <cc:Work
         rdf:about="">
        <dc:format>image/svg+xml</dc:format>
        <dc:type
           rdf:resource="http://purl.org/dc/dcmitype/StillImage" />
        <dc:title></dc:title>
      </cc:Work>
    </rdf:RDF>
  </metadata>
  <g
     id="layer1"
     inkscape:label="Layer 1"
     inkscape:groupmode="layer"
     transform="translate(0,448)">
    <g
       style="font-size:144px;font-style:normal;font-weight:normal;text-align:center;line-height:125%;letter-spacing:0px;word-spacing:0px;text-anchor:middle;fill:#000000;fill-opacity:1;stroke:none;font-family:Sans"
       id="text2983">
      <path
         d="m 359.45703,-87.537109 -206.92383,0 c -1.4e-4,-31.718681 10.04868,-58.720601 30.14649,-81.005861 20.23418,-22.28501 44.63845,-33.42758 73.21289,-33.42773 28.71066,1.5e-4 53.11493,11.14272 73.21289,33.42773 20.23404,22.28526 30.35121,49.28718 30.35156,81.005861 M 239.69141,-263.9043 l 0,17.43164 -60.49805,42.2461 -15.79102,-22.5586 40.60547,-28.30078 -40.60547,-28.50586 15.79102,-22.55859 60.49805,42.24609 m 32.8125,0 60.49804,-42.24609 15.79102,22.55859 -40.60547,28.50586 40.60547,28.30078 -15.79102,22.5586 -60.49804,-42.2461 0,-17.43164 M 71.9375,-198.89453 c -6.1e-5,-50.99589 17.978437,-94.47241 53.93555,-130.42969 35.95688,-36.09343 79.36504,-54.14029 130.22461,-54.14062 50.99579,3.3e-4 94.40395,18.04719 130.22461,54.14062 35.8199,35.95728 53.73004,79.4338 53.73046,130.42969 -4.2e-4,3.96499 -0.13714,7.79311 -0.41015,11.48437 l 19.07226,6.35743 c 8.06595,2.7345 13.73978,5.74231 17.02149,9.02343 4.10109,4.23841 6.15187,8.88684 6.15234,13.94532 -4.7e-4,5.19542 -1.84617,9.63877 -5.53711,13.33007 -3.69187,3.69151 -8.13522,5.53721 -13.33008,5.53711 -5.19576,1e-4 -9.91255,-2.11904 -14.15039,-6.35742 -3.4184,-3.41786 -6.35785,-9.02333 -8.81836,-16.8164 l -2.25586,-6.5625 c -5.7426,38.14461 -22.90079,71.503953 -51.4746,100.07812 -35.82066,35.8203 -79.22882,53.730438 -130.22461,53.730469 C 205.23809,-15.144562 161.82993,-33.0547 125.87305,-68.875 97.298742,-97.312449 80.072196,-130.53507 74.193359,-168.54297 l -2.050781,6.15235 c -2.460996,7.79307 -5.400446,13.39854 -8.818359,16.8164 -4.23833,4.23838 -8.955122,6.35752 -14.150391,6.35742 -5.195346,1e-4 -9.6387,-1.8456 -13.330078,-5.53711 -3.691428,-3.6913 -5.537129,-8.13465 -5.537109,-13.33007 -2e-5,-5.05848 2.050759,-9.70691 6.152343,-13.94532 3.144503,-3.41784 8.818325,-6.42565 17.021485,-9.02343 l 18.867187,-6.15235 c -0.273499,-3.82798 -0.410217,-7.72446 -0.410156,-11.68945 m 27.685547,0 c -8.9e-5,43.20323 15.244033,80.0489 45.732423,110.537108 30.62483,30.351575 67.53886,45.527341 110.74219,45.527344 43.33955,-3e-6 80.18522,-15.175769 110.53711,-45.527344 30.48789,-30.488208 45.73202,-67.333878 45.73242,-110.537108 -4e-4,-2.73422 -0.0688,-5.40023 -0.20508,-7.99805 -3.6918,3.55485 -8.0668,5.33219 -13.125,5.33203 -5.1957,1.6e-4 -9.91249,-2.11898 -14.15039,-6.35742 -3.41834,-3.4178 -6.35779,-9.02327 -8.81836,-16.8164 l -9.22852,-27.89063 27.89063,9.22852 c 5.60508,1.91425 10.04843,3.89667 13.33008,5.94726 -6.42618,-27.20681 -20.1664,-51.33765 -41.22071,-72.39258 -30.35188,-30.6247 -67.26591,-45.93719 -110.74218,-45.9375 -43.20333,3.1e-4 -80.11736,15.3128 -110.74219,45.9375 -21.0548,21.19165 -34.79502,45.32249 -41.2207,72.39258 3.28115,-2.18731 7.7245,-4.16972 13.33007,-5.94726 l 27.89063,-9.22852 -9.22852,27.89063 c -2.46106,7.79313 -5.40051,13.3986 -8.81836,16.8164 -4.23839,4.23844 -8.95518,6.35758 -14.15039,6.35742 -5.19541,1.6e-4 -9.63876,-1.84554 -13.330075,-5.53711 -0.136808,2.73454 -0.205167,5.46891 -0.205078,8.20313"
         style="font-size:420px"
         id="path3998" />
    </g>
  </g>
</svg>
