<?xml version="1.0" encoding="UTF-8" standalone="no"?>
<!-- Created with Inkscape (http://www.inkscape.org/) -->

<svg
   xmlns:dc="http://purl.org/dc/elements/1.1/"
   xmlns:cc="http://creativecommons.org/ns#"
   xmlns:rdf="http://www.w3.org/1999/02/22-rdf-syntax-ns#"
   xmlns:svg="http://www.w3.org/2000/svg"
   xmlns="http://www.w3.org/2000/svg"
   xmlns:sodipodi="http://sodipodi.sourceforge.net/DTD/sodipodi-0.dtd"
   xmlns:inkscape="http://www.inkscape.org/namespaces/inkscape"
   width="512"
   height="512"
   id="svg3003"
   version="1.1"
   inkscape:version="0.48.4 r9939"
   sodipodi:docname="POUTING CAT FACE.svg">
  <defs
     id="defs3005" />
  <sodipodi:namedview
     id="base"
     pagecolor="#ffffff"
     bordercolor="#666666"
     borderopacity="1.0"
     inkscape:pageopacity="0.0"
     inkscape:pageshadow="2"
     inkscape:zoom="0.36114926"
     inkscape:cx="534.60374"
     inkscape:cy="162.64408"
     inkscape:current-layer="layer1"
     showgrid="true"
     inkscape:document-units="px"
     inkscape:grid-bbox="true"
     inkscape:window-width="679"
     inkscape:window-height="729"
     inkscape:window-x="0"
     inkscape:window-y="18"
     inkscape:window-maximized="0" />
  <metadata
     id="metadata3008">
    <rdf:RDF>
      <cc:Work
         rdf:about="">
        <dc:format>image/svg+xml</dc:format>
        <dc:type
           rdf:resource="http://purl.org/dc/dcmitype/StillImage" />
        <dc:title></dc:title>
      </cc:Work>
    </rdf:RDF>
  </metadata>
  <g
     id="layer1"
     inkscape:label="Layer 1"
     inkscape:groupmode="layer"
     transform="translate(0,448)">
    <g
       style="font-size:144px;font-style:normal;font-weight:normal;text-align:center;line-height:125%;letter-spacing:0px;word-spacing:0px;text-anchor:middle;fill:#000000;fill-opacity:1;stroke:none;font-family:Sans"
       id="text2983">
      <path
         d="m 216.72266,-237.85937 c -5.87908,10.3908 -14.35564,17.50017 -25.42969,21.32812 -4.37515,1.50408 -9.29702,2.25603 -14.76563,2.25586 -9.57044,1.7e-4 -18.04699,-2.39241 -25.42968,-7.17773 -2.87121,-4.9217 -4.30675,-10.4588 -4.30664,-16.61133 -1.1e-4,-9.70683 3.62293,-17.84159 10.86914,-24.4043 6.42565,-6.0154 14.08189,-9.02321 22.96875,-9.02344 9.57016,2.3e-4 17.77327,3.34983 24.60937,10.04883 6.97248,6.56271 10.8006,14.42403 11.48438,23.58399 m -17.02149,-5.94727 c -4.92203,2e-4 -9.02359,1.64082 -12.30469,4.92187 -3.28139,3.28144 -4.92202,7.383 -4.92187,12.30469 -1.5e-4,1.91424 0.34165,3.89666 1.02539,5.94727 5.87875,-0.95686 11.14242,-3.21272 15.79102,-6.76758 4.78498,-3.5545 8.40803,-7.86114 10.86914,-12.91992 -3.00799,-2.32402 -6.49431,-3.48613 -10.45899,-3.48633 m 96.18164,5.94727 c 0.68334,-9.15996 4.4431,-17.02128 11.2793,-23.58399 6.83566,-6.699 15.03878,-10.0486 24.60937,-10.04883 9.02314,2.3e-4 16.74774,3.00804 23.17383,9.02344 7.24577,6.56271 10.86881,14.69747 10.86914,24.4043 -3.3e-4,6.15253 -1.43587,11.68963 -4.30664,16.61133 -7.38313,4.78532 -15.85968,7.1779 -25.42969,7.17773 -5.46904,1.7e-4 -10.39091,-0.75178 -14.76562,-2.25586 -11.07449,-3.82795 -19.55105,-10.93732 -25.42969,-21.32812 m 33.63281,16.40625 c 1.64034,0.41033 4.23799,0.6154 7.79297,0.61523 6.5622,1.7e-4 12.57782,-1.50373 18.04688,-4.51172 2.18718,-3.28107 3.28093,-6.83575 3.28125,-10.66406 -3.2e-4,-1.91387 -0.27376,-3.69121 -0.82031,-5.33203 -1.64095,-0.40996 -3.34993,-0.61504 -5.12696,-0.61524 -6.01593,2e-4 -11.21124,2.05098 -15.58593,6.15235 -4.3753,3.96503 -6.90459,8.75018 -7.5879,14.35547 m 83.67188,25.83984 c 2.46056,-17.77327 3.69103,-34.58966 3.69141,-50.44922 -3.8e-4,-6.28886 -0.34218,-12.91971 -1.02539,-19.89258 -0.68398,-6.97243 -1.36757,-12.57789 -2.05079,-16.8164 -0.68397,-4.23804 -1.77771,-10.39038 -3.28125,-18.45704 -1.50427,-8.06614 -2.52966,-13.80832 -3.07617,-17.22656 -3.69177,-22.01142 -8.40856,-44.43327 -14.15039,-67.26562 -33.22298,7.93002 -60.29326,25.29328 -81.21094,52.08984 -15.85963,-2.8708 -34.385,-4.30635 -55.57617,-4.30664 -21.46504,2.9e-4 -40.12713,1.43584 -55.98633,4.30664 -20.91811,-26.79656 -47.98839,-44.15982 -81.21093,-52.08984 -5.74227,22.83235 -10.45906,45.2542 -14.15039,67.26562 -0.68366,3.69168 -1.77741,9.43386 -3.28125,17.22656 -1.36725,7.79322 -2.461004,13.94556 -3.281254,18.45704 -0.683654,4.37523 -1.367247,10.04905 -2.050781,17.02148 -0.683653,6.83615 -1.025449,13.39864 -1.025391,19.6875 -5.8e-5,15.85956 1.230409,32.67595 3.691407,50.44922 l 66.035159,-8.81836 2.05078,13.53516 -65.83008,9.02343 c 1.914,9.43372 4.44329,18.52551 7.58789,27.27539 l 58.65234,-24.81445 5.33204,12.71484 -58.85743,25.01954 c 14.08194,31.58209 32.33388,55.507848 54.75586,71.777339 24.74594,18.046881 53.867,27.07031 87.36328,27.070313 33.49585,-3e-6 62.61691,-9.023432 87.36329,-27.070313 22.42154,-16.269491 40.67348,-40.195249 54.75585,-71.777339 l -58.85742,-25.01954 5.33203,-12.71484 58.65235,24.81445 c 2.87072,-7.79285 5.33166,-16.88464 7.38281,-27.27539 l -65.625,-9.02343 2.05078,-13.53516 65.83008,8.81836 m -341.455078,3.69141 c -2.324251,-16.95297 -3.486359,-35.2049 -3.486328,-54.75586 -3.1e-5,-7.79276 0.205046,-15.31229 0.615234,-22.5586 0.546843,-7.24586 1.435514,-14.9021 2.666016,-22.96875 1.367151,-8.20287 2.4609,-14.49192 3.28125,-18.86719 0.820274,-4.51144 2.255819,-11.75753 4.30664,-21.73828 2.187456,-10.11689 3.623002,-16.8161 4.306641,-20.09765 3.144482,-15.99577 7.314399,-33.56412 12.509766,-52.70508 l 3.076171,-11.89453 12.304688,1.8457 c 19.55069,3.00818 37.93934,9.22888 55.16602,18.66211 17.36313,9.29722 32.40218,20.5765 45.11718,33.83789 14.35528,-1.77702 29.25761,-2.6657 44.70703,-2.66601 15.44899,3.1e-4 30.35132,0.88899 44.70704,2.66601 12.71456,-13.26139 27.68525,-24.54067 44.9121,-33.83789 17.36296,-9.43323 35.81997,-15.65393 55.3711,-18.66211 l 12.09961,-1.8457 3.28125,11.89453 c 5.19493,19.14096 9.36484,36.70931 12.50976,52.70508 0.6832,3.28155 2.05039,9.98076 4.10157,20.09765 2.1871,9.98075 3.691,17.22684 4.51171,21.73828 0.81992,4.37527 1.84531,10.66432 3.07618,18.86719 1.36678,8.06665 2.25545,15.72289 2.66601,22.96875 0.54647,7.24631 0.81991,14.76584 0.82031,22.5586 -4e-4,19.55096 -1.16251,37.80289 -3.48632,54.75586 l 22.14843,3.07617 -2.05078,13.53515 -22.35351,-2.87109 c -2.05118,11.07434 -5.26407,22.5587 -9.63867,34.45312 l 22.55859,9.4336 -5.33203,12.71484 -22.35352,-9.43359 c -15.99646,36.230516 -37.32457,64.052754 -63.98437,83.466795 -29.66826,21.601543 -64.18971,32.402313 -103.56446,32.402344 -39.51189,-3.1e-5 -74.1017,-10.800801 -103.76953,-32.402344 -26.3868,-19.140604 -47.64655,-46.962842 -63.779294,-83.466795 l -22.353515,9.43359 -5.332032,-12.71484 22.353516,-9.4336 c -4.101605,-11.07411 -7.246133,-22.55847 -9.433594,-34.45312 l -22.353515,2.87109 -2.050782,-13.53515 22.148438,-3.07617 M 221.64453,-87.742187 c 9.57012,-13.535103 21.05448,-20.302673 34.45313,-20.302733 13.3982,6e-5 24.88256,6.76763 34.45312,20.302733 l -19.6875,19.482421 c -4.10179,-8.203094 -9.02366,-12.304652 -14.76562,-12.304687 -5.7424,3.5e-5 -10.66427,4.101593 -14.76563,12.304687 l -19.6875,-19.482421 m -55.78125,-30.761723 c 24.74594,-24.74599 54.82404,-37.11903 90.23438,-37.11914 35.4099,1.1e-4 65.48799,12.37315 90.23437,37.11914 l -19.6875,19.687504 C 307.2302,-118.2304 283.7146,-127.93742 256.09766,-127.9375 c -27.34395,8e-5 -50.85955,9.7071 -70.54688,29.121094 l -19.6875,-19.687504 m 58.24219,-93.51562 c 12.44121,6.28922 23.17362,9.43375 32.19726,9.43359 9.02321,1.6e-4 19.75562,-3.14437 32.19727,-9.43359 l 12.71484,24.60937 c -16.26978,8.33998 -31.24046,12.5099 -44.91211,12.50977 -13.80879,1.3e-4 -28.77948,-4.16979 -44.91211,-12.50977 l 12.71485,-24.60937 m 102.94922,-117.50977 15.79101,22.5586 -62.13867,43.68164 -15.79101,-22.76367 62.13867,-43.47657 m -141.91407,0 62.13868,43.47657 -15.79102,22.76367 -62.13867,-43.68164 15.79101,-22.5586"
         style="font-size:420px"
         id="path4455" />
    </g>
  </g>
</svg>
