<?xml version="1.0" encoding="UTF-8" standalone="no"?>
<!-- Created with Inkscape (http://www.inkscape.org/) -->

<svg
   xmlns:dc="http://purl.org/dc/elements/1.1/"
   xmlns:cc="http://creativecommons.org/ns#"
   xmlns:rdf="http://www.w3.org/1999/02/22-rdf-syntax-ns#"
   xmlns:svg="http://www.w3.org/2000/svg"
   xmlns="http://www.w3.org/2000/svg"
   xmlns:sodipodi="http://sodipodi.sourceforge.net/DTD/sodipodi-0.dtd"
   xmlns:inkscape="http://www.inkscape.org/namespaces/inkscape"
   width="512"
   height="512"
   id="svg3003"
   version="1.1"
   inkscape:version="0.48.4 r9939"
   sodipodi:docname="RELIEVED FACE.svg">
  <defs
     id="defs3005" />
  <sodipodi:namedview
     id="base"
     pagecolor="#ffffff"
     bordercolor="#666666"
     borderopacity="1.0"
     inkscape:pageopacity="0.0"
     inkscape:pageshadow="2"
     inkscape:zoom="1.0214844"
     inkscape:cx="312.65357"
     inkscape:cy="245.02671"
     inkscape:current-layer="layer1"
     showgrid="true"
     inkscape:document-units="px"
     inkscape:grid-bbox="true"
     inkscape:window-width="679"
     inkscape:window-height="729"
     inkscape:window-x="683"
     inkscape:window-y="18"
     inkscape:window-maximized="0" />
  <metadata
     id="metadata3008">
    <rdf:RDF>
      <cc:Work
         rdf:about="">
        <dc:format>image/svg+xml</dc:format>
        <dc:type
           rdf:resource="http://purl.org/dc/dcmitype/StillImage" />
        <dc:title></dc:title>
      </cc:Work>
    </rdf:RDF>
  </metadata>
  <g
     id="layer1"
     inkscape:label="Layer 1"
     inkscape:groupmode="layer"
     transform="translate(0,448)">
    <g
       style="font-size:144px;font-style:normal;font-weight:normal;text-align:center;line-height:125%;letter-spacing:0px;word-spacing:0px;text-anchor:middle;fill:#000000;fill-opacity:1;stroke:none;font-family:Sans"
       id="text2983">
      <path
         d="m 148.02148,-141.26758 23.58399,-14.56054 c 3.82799,6.01572 8.47642,11.62119 13.94531,16.8164 19.4139,19.41414 42.9295,29.12116 70.54688,29.12109 27.61694,7e-5 51.13254,-9.70695 70.54687,-29.12109 5.33174,-5.33193 9.98017,-11.00575 13.94531,-17.02148 l 23.58399,14.76562 c -5.05892,7.79306 -11.00618,15.1075 -17.8418,21.94336 -24.8831,24.746144 -54.96119,37.119178 -90.23437,37.119142 -35.27363,3.6e-5 -65.35172,-12.372998 -90.23438,-37.119142 -6.83606,-6.97257 -12.78332,-14.28702 -17.8418,-21.94336 m 217.58789,-142.52929 c -3.2e-4,19.00412 -4.78548,35.27364 -14.35546,48.80859 -9.57062,13.39861 -21.05498,20.09782 -34.45313,20.09766 -13.3987,1.6e-4 -24.88307,-6.69905 -34.45312,-20.09766 -9.57055,-13.53495 -14.3557,-29.80447 -14.35547,-48.80859 l 27.68554,0 c -2.5e-4,11.34788 2.05052,21.12326 6.15235,29.32617 4.23801,8.0666 9.22824,12.0998 14.9707,12.09961 5.7419,1.9e-4 10.66377,-4.03301 14.76563,-12.09961 4.23798,-8.20291 6.35712,-17.97829 6.35742,-29.32617 l 27.68554,0 m -121.40625,0 c -2e-4,19.00412 -4.78535,35.27364 -14.35546,48.80859 -9.5705,13.39861 -21.05486,20.09782 -34.45313,20.09766 -13.39858,1.6e-4 -24.88294,-6.69905 -34.45312,-20.09766 -9.57043,-13.53495 -14.35558,-29.80447 -14.35547,-48.80859 l 27.68554,0 c -1.3e-4,11.34788 2.05065,21.12326 6.15235,29.32617 4.23813,8.0666 9.22836,12.0998 14.9707,12.09961 5.74202,1.9e-4 10.66389,-4.03301 14.76563,-12.09961 4.2381,-8.20291 6.35724,-17.97829 6.35742,-29.32617 l 27.68554,0 M 71.9375,-198.89453 c -3.5e-5,-50.99589 17.978463,-94.47241 53.93555,-130.42969 35.9569,-36.09343 79.36506,-54.14029 130.22461,-54.14062 50.99582,3.3e-4 94.40398,18.04719 130.22461,54.14062 35.81992,35.95728 53.73006,79.4338 53.73046,130.42969 -4e-4,50.85948 -17.91054,94.19928 -53.73046,130.01953 -35.82063,35.8203 -79.22879,53.730438 -130.22461,53.730469 C 205.23811,-15.144562 161.82995,-33.0547 125.87305,-68.875 89.915963,-104.69525 71.937465,-148.03505 71.9375,-198.89453 m 27.685547,0 c -6.3e-5,43.20323 15.244063,80.0489 45.732423,110.537108 30.62486,30.351575 67.53889,45.527341 110.74219,45.527344 43.33958,-3e-6 80.18524,-15.175769 110.53711,-45.527344 30.48792,-30.488208 45.73204,-67.333878 45.73242,-110.537108 -3.8e-4,-43.33965 -15.2445,-80.32203 -45.73242,-110.94727 -30.35187,-30.6247 -67.19753,-45.93719 -110.53711,-45.9375 -43.2033,3.1e-4 -80.11733,15.3128 -110.74219,45.9375 -30.48836,30.62524 -45.732486,67.60762 -45.732423,110.94727"
         style="font-size:420px"
         id="path3256" />
    </g>
  </g>
</svg>
