<?xml version="1.0" encoding="UTF-8" standalone="no"?>
<!-- Created with Inkscape (http://www.inkscape.org/) -->

<svg
   xmlns:dc="http://purl.org/dc/elements/1.1/"
   xmlns:cc="http://creativecommons.org/ns#"
   xmlns:rdf="http://www.w3.org/1999/02/22-rdf-syntax-ns#"
   xmlns:svg="http://www.w3.org/2000/svg"
   xmlns="http://www.w3.org/2000/svg"
   xmlns:sodipodi="http://sodipodi.sourceforge.net/DTD/sodipodi-0.dtd"
   xmlns:inkscape="http://www.inkscape.org/namespaces/inkscape"
   width="512"
   height="512"
   id="svg3003"
   version="1.1"
   inkscape:version="0.48.4 r9939"
   sodipodi:docname="SLEEPING FACE.svg">
  <defs
     id="defs3005" />
  <sodipodi:namedview
     id="base"
     pagecolor="#ffffff"
     bordercolor="#666666"
     borderopacity="1.0"
     inkscape:pageopacity="0.0"
     inkscape:pageshadow="2"
     inkscape:zoom="0.36114926"
     inkscape:cx="-64.274314"
     inkscape:cy="162.64408"
     inkscape:current-layer="layer1"
     showgrid="true"
     inkscape:document-units="px"
     inkscape:grid-bbox="true"
     inkscape:window-width="679"
     inkscape:window-height="729"
     inkscape:window-x="0"
     inkscape:window-y="18"
     inkscape:window-maximized="0" />
  <metadata
     id="metadata3008">
    <rdf:RDF>
      <cc:Work
         rdf:about="">
        <dc:format>image/svg+xml</dc:format>
        <dc:type
           rdf:resource="http://purl.org/dc/dcmitype/StillImage" />
        <dc:title></dc:title>
      </cc:Work>
    </rdf:RDF>
  </metadata>
  <g
     id="layer1"
     inkscape:label="Layer 1"
     inkscape:groupmode="layer"
     transform="translate(0,448)">
    <g
       style="font-size:144px;font-style:normal;font-weight:normal;text-align:center;line-height:125%;letter-spacing:0px;word-spacing:0px;text-anchor:middle;fill:#000000;fill-opacity:1;stroke:none;font-family:Sans"
       id="text2983"
       transform="translate(42.763672,0)">
      <path
         d="m 394.52539,-435.55469 77.72461,0 0,21.32813 -50.85938,54.96094 50.85938,0 0,18.86718 -79.77539,0 0,-21.32812 50.85937,-54.96094 -48.80859,0 0,-18.86719 m -100.2832,0 77.72461,0 0,21.32813 -50.85938,54.96094 50.85938,0 0,18.86718 -79.77539,0 0,-21.32812 50.85937,-54.96094 -48.80859,0 0,-18.86719 M 119.7207,-119.93945 c -5.05879,-5.19524 -7.58808,-11.41593 -7.58789,-18.66211 -1.9e-4,-7.246 2.5291,-13.39833 7.58789,-18.45703 5.19511,-5.1952 11.41581,-7.79285 18.66211,-7.79297 7.24587,1.2e-4 13.39821,2.59777 18.45703,7.79297 5.19507,5.0587 7.79273,11.21103 7.79297,18.45703 -2.4e-4,7.24618 -2.5979,13.46687 -7.79297,18.66211 -5.05882,5.05866 -11.21116,7.58795 -18.45703,7.58789 -7.2463,6e-5 -13.467,-2.52923 -18.66211,-7.58789 m 128.17383,-163.85742 c -3.3e-4,19.00412 -4.78548,35.27364 -14.35547,48.80859 -9.57061,13.39861 -21.05498,20.09782 -34.45312,20.09766 -13.39871,1.6e-4 -24.88307,-6.69905 -34.45313,-20.09766 -9.57055,-13.53495 -14.3557,-29.80447 -14.35547,-48.80859 l 27.68555,0 c -2.6e-4,11.34788 2.05052,21.12326 6.15234,29.32617 4.23802,8.0666 9.22825,12.0998 14.97071,12.09961 5.7419,1.9e-4 10.66377,-4.03301 14.76562,-12.09961 4.23799,-8.20291 6.35712,-17.97829 6.35742,-29.32617 l 27.68555,0 m -121.40625,0 c -2.1e-4,19.00412 -4.78536,35.27364 -14.35547,48.80859 -9.57049,13.39861 -21.054857,20.09782 -34.453123,20.09766 -13.398582,1.6e-4 -24.882945,-6.69905 -34.453125,-20.09766 -9.570426,-13.53495 -14.355578,-29.80447 -14.355468,-48.80859 l 27.685547,0 c -1.38e-4,11.34788 2.050642,21.12326 6.152343,29.32617 4.238134,8.0666 9.228363,12.0998 14.970703,12.09961 5.742024,1.9e-4 10.663894,-4.03301 14.765625,-12.09961 4.238104,-8.20291 6.357243,-17.97829 6.357422,-29.32617 l 27.685546,0 m -172.265624,84.90234 c -3.5e-5,-50.99589 17.978463,-94.47241 53.9355471,-130.42969 35.9569069,-36.09343 79.3650659,-54.14029 130.2246069,-54.14062 50.99583,3.3e-4 94.40399,18.04719 130.22461,54.14062 35.81993,35.95728 53.73007,79.4338 53.73047,130.42969 -4e-4,50.85948 -17.91054,94.19928 -53.73047,130.01953 -35.82062,35.8203 -79.22878,53.730438 -130.22461,53.730469 C 87.523269,-15.144562 44.11511,-33.0547 8.1582031,-68.875 -27.798881,-104.69525 -45.777379,-148.03505 -45.777344,-198.89453 m 27.685547,0 c -6.2e-5,43.20323 15.244063,80.0489 45.732422,110.537108 30.624861,30.351575 67.538887,45.527341 110.742185,45.527344 43.33958,-3e-6 80.18525,-15.175769 110.53711,-45.527344 30.48792,-30.488208 45.73205,-67.333878 45.73242,-110.537108 -3.7e-4,-43.33965 -15.2445,-80.32203 -45.73242,-110.94727 -30.35186,-30.6247 -67.19753,-45.93719 -110.53711,-45.9375 -43.203298,3.1e-4 -80.117324,15.3128 -110.742185,45.9375 -30.488359,30.62524 -45.732484,67.60762 -45.732422,110.94727"
         style="font-size:420px"
         id="path4152"
         inkscape:connector-curvature="0"
         sodipodi:nodetypes="ccccccccccccccccccccccccccccccccccccccccccccccccccccccccccssscccssccccc" />
    </g>
  </g>
</svg>
