<?xml version="1.0" encoding="UTF-8" standalone="no"?>
<!-- Created with Inkscape (http://www.inkscape.org/) -->

<svg
   xmlns:dc="http://purl.org/dc/elements/1.1/"
   xmlns:cc="http://creativecommons.org/ns#"
   xmlns:rdf="http://www.w3.org/1999/02/22-rdf-syntax-ns#"
   xmlns:svg="http://www.w3.org/2000/svg"
   xmlns="http://www.w3.org/2000/svg"
   xmlns:sodipodi="http://sodipodi.sourceforge.net/DTD/sodipodi-0.dtd"
   xmlns:inkscape="http://www.inkscape.org/namespaces/inkscape"
   width="512"
   height="512"
   id="svg3003"
   version="1.1"
   inkscape:version="0.48.4 r9939"
   sodipodi:docname="SMILING FACE WITH HALO.svg">
  <defs
     id="defs3005" />
  <sodipodi:namedview
     id="base"
     pagecolor="#ffffff"
     bordercolor="#666666"
     borderopacity="1.0"
     inkscape:pageopacity="0.0"
     inkscape:pageshadow="2"
     inkscape:zoom="1.0214844"
     inkscape:cx="312.65357"
     inkscape:cy="245.02671"
     inkscape:current-layer="layer1"
     showgrid="true"
     inkscape:document-units="px"
     inkscape:grid-bbox="true"
     inkscape:window-width="679"
     inkscape:window-height="729"
     inkscape:window-x="683"
     inkscape:window-y="18"
     inkscape:window-maximized="0" />
  <metadata
     id="metadata3008">
    <rdf:RDF>
      <cc:Work
         rdf:about="">
        <dc:format>image/svg+xml</dc:format>
        <dc:type
           rdf:resource="http://purl.org/dc/dcmitype/StillImage" />
        <dc:title></dc:title>
      </cc:Work>
    </rdf:RDF>
  </metadata>
  <g
     id="layer1"
     inkscape:label="Layer 1"
     inkscape:groupmode="layer"
     transform="translate(0,448)">
    <g
       style="font-size:144px;font-style:normal;font-weight:normal;text-align:center;line-height:125%;letter-spacing:0px;word-spacing:0px;text-anchor:middle;fill:#000000;fill-opacity:1;stroke:none;font-family:Sans"
       id="text2983">
      <path
         d="m 148.02148,-141.26758 23.58399,-14.56054 c 3.82799,6.01572 8.47642,11.62119 13.94531,16.8164 19.55061,19.27742 43.06622,28.98444 70.54688,29.12109 27.61694,7e-5 51.13254,-9.70695 70.54687,-29.12109 5.33174,-5.33193 9.98017,-11.00575 13.94531,-17.02148 l 23.58399,14.76562 c -5.05892,7.79306 -11.00618,15.1075 -17.8418,21.94336 -24.8831,24.746144 -54.96119,37.119178 -90.23437,37.119142 -35.27363,3.6e-5 -65.35172,-12.372998 -90.23438,-37.119142 -6.83606,-6.97257 -12.78332,-14.28702 -17.8418,-21.94336 m -48.398433,-57.62695 c -6.3e-5,43.20323 15.244063,80.0489 45.732423,110.537108 30.62486,30.351575 67.53889,45.527341 110.74219,45.527344 43.33958,-3e-6 80.18524,-15.175769 110.53711,-45.527344 30.48792,-30.488208 45.73204,-67.333878 45.73242,-110.537108 -3.8e-4,-43.33965 -15.17614,-80.32203 -45.52735,-110.94727 l -2.87109,-2.87109 c -31.30889,7.79323 -67.26588,11.68971 -107.87109,11.68945 -40.46893,2.6e-4 -76.42593,-3.89622 -107.8711,-11.68945 l -2.87109,2.87109 c -30.62508,30.62524 -45.869204,67.60762 -45.732423,110.94727 m 187.646483,-56.39649 c -2.5e-4,-8.06618 2.80248,-14.83376 8.4082,-20.30273 5.60521,-5.60523 12.37278,-8.40797 20.30274,-8.4082 7.9294,2.3e-4 14.69697,2.80297 20.30273,8.4082 5.74189,5.46897 8.61298,12.23655 8.61328,20.30273 -3e-4,7.92989 -2.87139,14.76582 -8.61328,20.50782 -5.60576,5.60565 -12.37333,8.40838 -20.30273,8.4082 -8.06668,1.8e-4 -14.90261,-2.80255 -20.50781,-8.4082 -5.46901,-5.742 -8.20338,-12.57793 -8.20313,-20.50782 m -118.53516,0 c -1.3e-4,-8.06618 2.73425,-14.83376 8.20313,-20.30273 5.60532,-5.60523 12.44125,-8.40797 20.50781,-8.4082 7.92952,2.3e-4 14.69709,2.80297 20.30274,8.4082 5.60528,5.46897 8.40801,12.23655 8.4082,20.30273 -1.9e-4,8.06661 -2.80292,14.90254 -8.4082,20.50782 -5.60565,5.60565 -12.37322,8.40838 -20.30274,8.4082 -8.06656,1.8e-4 -14.90249,-2.80255 -20.50781,-8.4082 -5.46888,-5.742 -8.20326,-12.57793 -8.20313,-20.50782 M 66.400391,-367.26367 c -3e-5,-18.31997 18.525342,-33.97426 55.576169,-46.96289 37.05066,-12.9879 81.75765,-19.48204 134.1211,-19.48242 52.49972,3.8e-4 97.20671,6.49452 134.12109,19.48242 36.91367,12.98863 55.37069,28.64292 55.37109,46.96289 -4e-4,17.77374 -17.29531,32.94951 -51.88476,45.52734 30.89805,34.45337 46.34725,75.40059 46.34765,122.8418 -4e-4,50.85948 -17.91054,94.19928 -53.73046,130.01953 -35.82063,35.8203 -79.22879,53.730438 -130.22461,53.730469 C 205.23811,-15.144562 161.82995,-33.0547 125.87305,-68.875 89.915963,-104.69525 71.937465,-148.03505 71.9375,-198.89453 c -3.5e-5,-47.44121 15.517528,-88.38843 46.55273,-122.8418 -34.726605,-12.57783 -52.089869,-27.7536 -52.089839,-45.52734 m 307.412109,26.25 c 25.70276,-7.38251 38.55431,-16.1325 38.55469,-26.25 -3.8e-4,-11.07389 -15.2445,-20.50747 -45.73242,-28.30078 -30.35187,-7.79261 -67.19753,-11.68909 -110.53711,-11.68946 -43.2033,3.7e-4 -80.11733,3.89685 -110.74219,11.68946 -30.48836,7.79331 -45.732486,17.22689 -45.732423,28.30078 -6.3e-5,10.1175 12.919843,18.86749 38.759763,26.25 33.35924,-28.30046 72.59748,-42.45084 117.71485,-42.45117 45.25364,3.3e-4 84.49188,14.15071 117.71484,42.45117 m -36.09375,7.79297 c -24.06278,-15.03876 -51.26978,-22.55829 -81.62109,-22.5586 -30.21504,3.1e-4 -57.35368,7.51984 -81.41602,22.5586 24.06234,3.82841 51.20098,5.74247 81.41602,5.74218 30.35131,2.9e-4 57.55831,-1.91377 81.62109,-5.74218"
         style="font-size:420px"
         id="path3146" />
    </g>
  </g>
</svg>
