<?xml version="1.0" encoding="UTF-8" standalone="no"?>
<!-- Created with Inkscape (http://www.inkscape.org/) -->

<svg
   xmlns:dc="http://purl.org/dc/elements/1.1/"
   xmlns:cc="http://creativecommons.org/ns#"
   xmlns:rdf="http://www.w3.org/1999/02/22-rdf-syntax-ns#"
   xmlns:svg="http://www.w3.org/2000/svg"
   xmlns="http://www.w3.org/2000/svg"
   xmlns:sodipodi="http://sodipodi.sourceforge.net/DTD/sodipodi-0.dtd"
   xmlns:inkscape="http://www.inkscape.org/namespaces/inkscape"
   width="512"
   height="512"
   id="svg3003"
   version="1.1"
   inkscape:version="0.48.4 r9939"
   sodipodi:docname="SMILING FACE WITH HORNS.svg">
  <defs
     id="defs3005" />
  <sodipodi:namedview
     id="base"
     pagecolor="#ffffff"
     bordercolor="#666666"
     borderopacity="1.0"
     inkscape:pageopacity="0.0"
     inkscape:pageshadow="2"
     inkscape:zoom="1.0214844"
     inkscape:cx="312.65357"
     inkscape:cy="245.02671"
     inkscape:current-layer="layer1"
     showgrid="true"
     inkscape:document-units="px"
     inkscape:grid-bbox="true"
     inkscape:window-width="679"
     inkscape:window-height="729"
     inkscape:window-x="683"
     inkscape:window-y="18"
     inkscape:window-maximized="0" />
  <metadata
     id="metadata3008">
    <rdf:RDF>
      <cc:Work
         rdf:about="">
        <dc:format>image/svg+xml</dc:format>
        <dc:type
           rdf:resource="http://purl.org/dc/dcmitype/StillImage" />
        <dc:title></dc:title>
      </cc:Work>
    </rdf:RDF>
  </metadata>
  <g
     id="layer1"
     inkscape:label="Layer 1"
     inkscape:groupmode="layer"
     transform="translate(0,448)">
    <g
       style="font-size:144px;font-style:normal;font-weight:normal;text-align:center;line-height:125%;letter-spacing:0px;word-spacing:0px;text-anchor:middle;fill:#000000;fill-opacity:1;stroke:none;font-family:Sans"
       id="text2983">
      <path
         d="m 185.14062,-329.5293 62.13868,43.47657 -15.79102,22.76367 -62.13867,-43.68164 15.79101,-22.5586 m 102.12891,89.00391 c -2.5e-4,-8.0662 2.80248,-14.83378 8.4082,-20.30273 5.60521,-5.60525 12.37278,-8.40798 20.30274,-8.40821 7.9294,2.3e-4 14.69697,2.80296 20.30273,8.40821 5.74189,5.46895 8.61298,12.23653 8.61328,20.30273 -3e-4,7.92987 -2.87139,14.7658 -8.61328,20.50781 -5.60576,5.60564 -12.37333,8.40837 -20.30273,8.40821 -8.06668,1.6e-4 -14.90261,-2.80257 -20.50781,-8.40821 -5.46901,-5.74201 -8.20338,-12.57794 -8.20313,-20.50781 m -118.53516,0 c -1.3e-4,-8.0662 2.73425,-14.83378 8.20313,-20.30273 5.60532,-5.60525 12.44125,-8.40798 20.50781,-8.40821 7.92952,2.3e-4 14.69709,2.80296 20.30274,8.40821 5.60528,5.46895 8.40801,12.23653 8.4082,20.30273 -1.9e-4,8.06659 -2.80292,14.90252 -8.4082,20.50781 -5.60565,5.60564 -12.37322,8.40837 -20.30274,8.40821 -8.06656,1.6e-4 -14.90249,-2.80257 -20.50781,-8.40821 -5.46888,-5.74201 -8.20326,-12.57794 -8.20313,-20.50781 m 158.32032,-89.00391 15.79101,22.5586 -62.13867,43.68164 -15.79101,-22.76367 62.13867,-43.47657 m -179.03321,188.26172 23.58399,-14.56054 c 3.82799,6.01572 8.47642,11.62119 13.94531,16.8164 19.4139,19.41414 42.9295,29.12116 70.54688,29.12109 27.61694,7e-5 51.13254,-9.70695 70.54687,-29.12109 5.33174,-5.33193 9.98017,-11.00575 13.94531,-17.02148 l 23.58399,14.76562 c -5.05892,7.79306 -11.00618,15.1075 -17.8418,21.94336 -24.8831,24.746144 -54.96119,37.119178 -90.23437,37.119142 -35.27363,3.6e-5 -65.35172,-12.372998 -90.23438,-37.119142 -6.83606,-6.97257 -12.78332,-14.28702 -17.8418,-21.94336 m -48.398433,-57.62695 c -6.3e-5,43.20323 15.244063,80.0489 45.732423,110.537108 30.62486,30.351575 67.53889,45.527341 110.74219,45.527344 43.33958,-3e-6 80.18524,-15.175769 110.53711,-45.527344 30.48792,-30.488208 45.73204,-67.333878 45.73242,-110.537108 -3.8e-4,-43.33965 -15.2445,-80.32203 -45.73242,-110.94727 -30.35187,-30.6247 -67.19753,-45.93719 -110.53711,-45.9375 -43.2033,3.1e-4 -80.11733,15.3128 -110.74219,45.9375 -30.48836,30.62524 -45.732486,67.60762 -45.732423,110.94727 M 198.4707,-374.85156 c 18.0467,-5.74186 37.25566,-8.61295 57.62696,-8.61328 20.37085,3.3e-4 39.57982,2.87142 57.62695,8.61328 l 90.84961,-48.39844 0,114.84375 c 23.65195,31.58226 35.47811,68.08613 35.47851,109.51172 -4e-4,50.85948 -17.91054,94.19928 -53.73046,130.01953 -35.82063,35.8203 -79.22879,53.730438 -130.22461,53.730469 C 205.23811,-15.144562 161.82995,-33.0547 125.87305,-68.875 89.915963,-104.69525 71.937465,-148.03505 71.9375,-198.89453 c -3.5e-5,-41.42559 11.894484,-77.92946 35.68359,-109.51172 l 0,-114.84375 90.84961,48.39844"
         style="font-size:420px"
         id="path3168" />
    </g>
  </g>
</svg>
