<?xml version="1.0" encoding="UTF-8" standalone="no"?>
<!-- Created with Inkscape (http://www.inkscape.org/) -->

<svg
   xmlns:dc="http://purl.org/dc/elements/1.1/"
   xmlns:cc="http://creativecommons.org/ns#"
   xmlns:rdf="http://www.w3.org/1999/02/22-rdf-syntax-ns#"
   xmlns:svg="http://www.w3.org/2000/svg"
   xmlns="http://www.w3.org/2000/svg"
   xmlns:sodipodi="http://sodipodi.sourceforge.net/DTD/sodipodi-0.dtd"
   xmlns:inkscape="http://www.inkscape.org/namespaces/inkscape"
   width="512"
   height="512"
   id="svg3003"
   version="1.1"
   inkscape:version="0.48.4 r9939"
   sodipodi:docname="SMILING CAT FACE WITH HEART-SHAPED EYES.svg">
  <defs
     id="defs3005" />
  <sodipodi:namedview
     id="base"
     pagecolor="#ffffff"
     bordercolor="#666666"
     borderopacity="1.0"
     inkscape:pageopacity="0.0"
     inkscape:pageshadow="2"
     inkscape:zoom="0.36114926"
     inkscape:cx="602.03932"
     inkscape:cy="162.64408"
     inkscape:current-layer="layer1"
     showgrid="true"
     inkscape:document-units="px"
     inkscape:grid-bbox="true"
     inkscape:window-width="679"
     inkscape:window-height="729"
     inkscape:window-x="0"
     inkscape:window-y="18"
     inkscape:window-maximized="0" />
  <metadata
     id="metadata3008">
    <rdf:RDF>
      <cc:Work
         rdf:about="">
        <dc:format>image/svg+xml</dc:format>
        <dc:type
           rdf:resource="http://purl.org/dc/dcmitype/StillImage" />
        <dc:title></dc:title>
      </cc:Work>
    </rdf:RDF>
  </metadata>
  <g
     id="layer1"
     inkscape:label="Layer 1"
     inkscape:groupmode="layer"
     transform="translate(0,448)">
    <g
       style="font-size:144px;font-style:normal;font-weight:normal;text-align:center;line-height:125%;letter-spacing:0px;word-spacing:0px;text-anchor:middle;fill:#000000;fill-opacity:1;stroke:none;font-family:Sans"
       id="text2983">
      <path
         d="m 176.11719,-127.11719 18.86718,-20.09765 c 9.43343,8.75009 20.37092,13.12508 32.8125,13.125 7.92949,8e-5 17.63652,-3.00773 29.1211,-9.02344 11.48414,6.01571 21.19116,9.02352 29.12109,9.02344 12.44115,8e-5 23.37864,-4.37491 32.8125,-13.125 l 18.86719,20.09765 c -14.76591,13.67195 -31.99246,20.50788 -51.67969,20.50781 -10.11742,7e-5 -19.82445,-1.91399 -29.12109,-5.74218 -9.43381,3.82819 -19.14083,5.74225 -29.1211,5.74218 -19.68767,7e-5 -36.91421,-6.83586 -51.67968,-20.50781 M 288.5,-193.5625 l 12.71484,24.60938 c -16.67993,8.33995 -31.65062,12.50987 -44.91211,12.50976 -13.26192,1.1e-4 -28.23261,-4.16981 -44.91211,-12.50976 l 12.71485,-24.60938 c 12.30449,6.2892 23.0369,9.43373 32.19726,9.43359 9.15993,1.4e-4 19.89234,-3.14439 32.19727,-9.43359 m 124.6875,-2.05078 c 2.46056,-17.77327 3.69103,-34.58966 3.69141,-50.44922 -3.8e-4,-6.28886 -0.34218,-12.91971 -1.02539,-19.89258 -0.68398,-6.97243 -1.36757,-12.57789 -2.05079,-16.8164 -0.68397,-4.23804 -1.77771,-10.39038 -3.28125,-18.45704 -1.50427,-8.06614 -2.52966,-13.80832 -3.07617,-17.22656 -3.69177,-22.01142 -8.40856,-44.43327 -14.15039,-67.26562 -33.22298,7.93002 -60.29326,25.29328 -81.21094,52.08984 -15.85963,-2.8708 -34.385,-4.30635 -55.57617,-4.30664 -21.46504,2.9e-4 -40.12713,1.43584 -55.98633,4.30664 -20.91811,-26.79656 -47.98839,-44.15982 -81.21093,-52.08984 -5.74227,22.83235 -10.45906,45.2542 -14.15039,67.26562 -0.68366,3.69168 -1.77741,9.43386 -3.28125,17.22656 -1.36725,7.79322 -2.461004,13.94556 -3.281254,18.45704 -0.683654,4.37523 -1.367247,10.04905 -2.050781,17.02148 -0.683653,6.83615 -1.025449,13.39864 -1.025391,19.6875 -5.8e-5,15.85956 1.230409,32.67595 3.691407,50.44922 l 66.035159,-8.81836 2.05078,13.53516 -65.83008,9.02343 c 1.914,9.43372 4.44329,18.52551 7.58789,27.27539 l 58.65234,-24.81445 5.33204,12.71484 -58.85743,25.01954 c 14.08194,31.58209 32.33388,55.507848 54.75586,71.777339 24.74594,18.046881 53.867,27.07031 87.36328,27.070313 33.49585,-3e-6 62.61691,-9.023432 87.36329,-27.070313 22.42154,-16.269491 40.67348,-40.195249 54.75585,-71.777339 l -58.85742,-25.01954 5.33203,-12.71484 58.65235,24.81445 c 2.87072,-7.79285 5.33166,-16.88464 7.38281,-27.27539 l -65.625,-9.02343 2.05078,-13.53516 65.83008,8.81836 m -341.455078,3.69141 c -2.324251,-16.95297 -3.486359,-35.2049 -3.486328,-54.75586 -3.1e-5,-7.79276 0.205046,-15.31229 0.615234,-22.5586 0.546843,-7.24586 1.435514,-14.9021 2.666016,-22.96875 1.367151,-8.20287 2.4609,-14.49192 3.28125,-18.86719 0.820274,-4.51144 2.255819,-11.75753 4.30664,-21.73828 2.187456,-10.11689 3.623002,-16.8161 4.306641,-20.09765 3.144482,-15.99577 7.314399,-33.56412 12.509766,-52.70508 l 3.076171,-11.89453 12.304688,1.8457 c 19.55069,3.00818 37.93934,9.22888 55.16602,18.66211 17.36313,9.29722 32.40218,20.5765 45.11718,33.83789 14.35528,-1.77702 29.25761,-2.6657 44.70703,-2.66601 15.44899,3.1e-4 30.35132,0.88899 44.70704,2.66601 12.71456,-13.26139 27.68525,-24.54067 44.9121,-33.83789 17.36296,-9.43323 35.81997,-15.65393 55.3711,-18.66211 l 12.09961,-1.8457 3.28125,11.89453 c 5.19493,19.14096 9.36484,36.70931 12.50976,52.70508 0.6832,3.28155 2.05039,9.98076 4.10157,20.09765 2.1871,9.98075 3.691,17.22684 4.51171,21.73828 0.81992,4.37527 1.84531,10.66432 3.07618,18.86719 1.36678,8.06665 2.25545,15.72289 2.66601,22.96875 0.54647,7.24631 0.81991,14.76584 0.82031,22.5586 -4e-4,19.55096 -1.16251,37.80289 -3.48632,54.75586 l 22.14843,3.07617 -2.05078,13.53515 -22.35351,-2.87109 c -2.05118,11.07434 -5.26407,22.5587 -9.63867,34.45312 l 22.55859,9.4336 -5.33203,12.71484 -22.35352,-9.43359 c -15.99646,36.230516 -37.32457,64.052754 -63.98437,83.466795 -29.66826,21.601543 -64.18971,32.402313 -103.56446,32.402344 -39.51189,-3.1e-5 -74.1017,-10.800801 -103.76953,-32.402344 -26.3868,-19.140604 -47.64655,-46.962842 -63.779294,-83.466795 l -22.353515,9.43359 -5.332032,-12.71484 22.353516,-9.4336 c -4.101605,-11.07411 -7.246133,-22.55847 -9.433594,-34.45312 l -22.353515,2.87109 -2.050782,-13.53515 22.148438,-3.07617 m 129.404298,-79.98047 c 1.36702,-6.56227 4.03303,-12.09938 7.99805,-16.61133 3.96466,-4.51147 9.02325,-6.76733 15.17578,-6.76758 6.28887,2.5e-4 11.55253,2.11939 15.79101,6.35742 4.23808,4.1018 6.35721,9.50219 6.35742,16.20117 -2.1e-4,10.11741 -4.23848,20.23459 -12.71484,30.35157 l -32.60742,38.96484 -0.41016,0 -34.45312,-42.45117 c -6.69934,-8.33964 -10.18567,-17.02127 -10.45899,-26.04492 -1.2e-4,-5.74196 2.18738,-11.07399 6.5625,-15.9961 4.37487,-4.92163 9.77526,-7.38256 16.20117,-7.38281 8.3397,2.5e-4 14.90219,4.85376 19.6875,14.56055 1.77719,3.69163 2.66586,6.63108 2.66602,8.81836 l 0.20508,0 m 86.74805,-23.37891 c 6.15208,2.5e-4 11.21067,2.25611 15.17578,6.76758 3.96457,4.51195 6.63058,10.04906 7.99804,16.61133 l 0.20508,0 c -2.7e-4,-2.18728 0.8884,-5.12673 2.66602,-8.81836 4.78487,-9.70679 11.34737,-14.5603 19.6875,-14.56055 6.42548,2.5e-4 11.82586,2.46118 16.20117,7.38281 4.37468,4.92211 6.56218,10.25414 6.5625,15.9961 -0.27376,9.02365 -3.76008,17.70528 -10.45899,26.04492 l -34.45312,42.45117 -0.41016,0 -32.60742,-38.96484 c -8.47679,-10.11698 -12.71507,-20.23416 -12.71484,-30.35157 -2.3e-4,-6.69898 2.11891,-12.09937 6.35742,-16.20117 4.23804,-4.23803 9.50171,-6.35717 15.79102,-6.35742"
         style="font-size:420px"
         id="path4389" />
    </g>
  </g>
</svg>
