<?xml version="1.0" encoding="UTF-8" standalone="no"?>
<!-- Created with Inkscape (http://www.inkscape.org/) -->

<svg
   xmlns:dc="http://purl.org/dc/elements/1.1/"
   xmlns:cc="http://creativecommons.org/ns#"
   xmlns:rdf="http://www.w3.org/1999/02/22-rdf-syntax-ns#"
   xmlns:svg="http://www.w3.org/2000/svg"
   xmlns="http://www.w3.org/2000/svg"
   xmlns:sodipodi="http://sodipodi.sourceforge.net/DTD/sodipodi-0.dtd"
   xmlns:inkscape="http://www.inkscape.org/namespaces/inkscape"
   width="512"
   height="512"
   id="svg3003"
   version="1.1"
   inkscape:version="0.48.4 r9939"
   sodipodi:docname="SMILING FACE WITH SUNGLASSES.svg">
  <defs
     id="defs3005" />
  <sodipodi:namedview
     id="base"
     pagecolor="#ffffff"
     bordercolor="#666666"
     borderopacity="1.0"
     inkscape:pageopacity="0.0"
     inkscape:pageshadow="2"
     inkscape:zoom="1.0214844"
     inkscape:cx="312.65357"
     inkscape:cy="245.02671"
     inkscape:current-layer="layer1"
     showgrid="true"
     inkscape:document-units="px"
     inkscape:grid-bbox="true"
     inkscape:window-width="679"
     inkscape:window-height="729"
     inkscape:window-x="683"
     inkscape:window-y="18"
     inkscape:window-maximized="0" />
  <metadata
     id="metadata3008">
    <rdf:RDF>
      <cc:Work
         rdf:about="">
        <dc:format>image/svg+xml</dc:format>
        <dc:type
           rdf:resource="http://purl.org/dc/dcmitype/StillImage" />
        <dc:title></dc:title>
      </cc:Work>
    </rdf:RDF>
  </metadata>
  <g
     id="layer1"
     inkscape:label="Layer 1"
     inkscape:groupmode="layer"
     transform="translate(0,448)">
    <g
       style="font-size:144px;font-style:normal;font-weight:normal;text-align:center;line-height:125%;letter-spacing:0px;word-spacing:0px;text-anchor:middle;fill:#000000;fill-opacity:1;stroke:none;font-family:Sans"
       id="text2983">
      <path
         d="m 99.623047,-198.89453 c -6.3e-5,43.20323 15.244063,80.0489 45.732423,110.537108 30.62486,30.351575 67.53889,45.527341 110.74219,45.527344 43.33958,-3e-6 80.18524,-15.175769 110.53711,-45.527344 30.48792,-30.488208 45.73204,-67.333878 45.73242,-110.537108 -3.8e-4,-26.65998 -5.74256,-50.92753 -17.22657,-72.80274 l -22.55859,0 0,16.20118 c -3.3e-4,13.67207 -5.67416,25.36151 -17.02148,35.06836 -11.34797,9.70719 -25.08819,14.5607 -41.22071,14.56054 -16.13307,1.6e-4 -29.87329,-4.85335 -41.2207,-14.56054 -11.34788,-9.70685 -17.0217,-21.39629 -17.02148,-35.06836 -2.2e-4,13.67207 -5.67405,25.36151 -17.02149,35.06836 -11.34785,9.70719 -25.08807,14.5607 -41.2207,14.56054 -16.13296,1.6e-4 -29.87318,-4.85335 -41.2207,-14.56054 -11.34777,-9.70685 -17.02159,-21.39629 -17.02149,-35.06836 l 0,-16.20118 -22.55859,0 c -11.62116,21.87521 -17.431706,46.14276 -17.431643,72.80274 m -27.685547,0 c -3.5e-5,-50.99589 17.978463,-94.47241 53.93555,-130.42969 35.9569,-36.09343 79.36506,-54.14029 130.22461,-54.14062 50.99582,3.3e-4 94.40398,18.04719 130.22461,54.14062 35.81992,35.95728 53.73006,79.4338 53.73046,130.42969 -4e-4,50.85948 -17.91054,94.19928 -53.73046,130.01953 -35.82063,35.8203 -79.22879,53.730438 -130.22461,53.730469 C 205.23811,-15.144562 161.82995,-33.0547 125.87305,-68.875 89.915963,-104.69525 71.937465,-148.03505 71.9375,-198.89453 m 76.08398,57.62695 23.58399,-14.56054 c 3.82799,6.01572 8.47642,11.62119 13.94531,16.8164 19.55061,19.27742 43.06622,28.98444 70.54688,29.12109 27.61694,7e-5 51.13254,-9.70695 70.54687,-29.12109 5.33174,-5.33193 9.98017,-11.00575 13.94531,-17.02148 l 23.58399,14.76562 c -5.05892,7.79306 -11.00618,15.1075 -17.8418,21.94336 -24.8831,24.746144 -54.96119,37.119178 -90.23437,37.119142 -35.27363,3.6e-5 -65.35172,-12.372998 -90.23438,-37.119142 -6.83606,-6.97257 -12.78332,-14.28702 -17.8418,-21.94336 m -12.09961,-158.11523 240.35157,0 c -3.00815,-3.55443 -6.15268,-7.04076 -9.4336,-10.45899 -30.35186,-30.6247 -67.26588,-45.93719 -110.74218,-45.9375 -43.2033,3.1e-4 -80.11733,15.3128 -110.74219,45.9375 -3.28136,3.41823 -6.42588,6.90456 -9.4336,10.45899"
         style="font-size:420px"
         id="path3300" />
    </g>
  </g>
</svg>
