<?xml version="1.0" encoding="UTF-8" standalone="no"?>
<!-- Created with Inkscape (http://www.inkscape.org/) -->

<svg
   xmlns:dc="http://purl.org/dc/elements/1.1/"
   xmlns:cc="http://creativecommons.org/ns#"
   xmlns:rdf="http://www.w3.org/1999/02/22-rdf-syntax-ns#"
   xmlns:svg="http://www.w3.org/2000/svg"
   xmlns="http://www.w3.org/2000/svg"
   xmlns:sodipodi="http://sodipodi.sourceforge.net/DTD/sodipodi-0.dtd"
   xmlns:inkscape="http://www.inkscape.org/namespaces/inkscape"
   width="512"
   height="512"
   id="svg3003"
   version="1.1"
   inkscape:version="0.48.4 r9939"
   sodipodi:docname="SMILING CAT FACE WITH OPEN MOUTH.svg">
  <defs
     id="defs3005" />
  <sodipodi:namedview
     id="base"
     pagecolor="#ffffff"
     bordercolor="#666666"
     borderopacity="1.0"
     inkscape:pageopacity="0.0"
     inkscape:pageshadow="2"
     inkscape:zoom="0.36114926"
     inkscape:cx="602.03932"
     inkscape:cy="162.64408"
     inkscape:current-layer="layer1"
     showgrid="true"
     inkscape:document-units="px"
     inkscape:grid-bbox="true"
     inkscape:window-width="679"
     inkscape:window-height="729"
     inkscape:window-x="0"
     inkscape:window-y="18"
     inkscape:window-maximized="0" />
  <metadata
     id="metadata3008">
    <rdf:RDF>
      <cc:Work
         rdf:about="">
        <dc:format>image/svg+xml</dc:format>
        <dc:type
           rdf:resource="http://purl.org/dc/dcmitype/StillImage" />
        <dc:title></dc:title>
      </cc:Work>
    </rdf:RDF>
  </metadata>
  <g
     id="layer1"
     inkscape:label="Layer 1"
     inkscape:groupmode="layer"
     transform="translate(0,448)">
    <g
       style="font-size:144px;font-style:normal;font-weight:normal;text-align:center;line-height:125%;letter-spacing:0px;word-spacing:0px;text-anchor:middle;fill:#000000;fill-opacity:1;stroke:none;font-family:Sans"
       id="text2983">
      <path
         d="m 224.10547,-212.01953 c 12.57792,6.28922 23.31034,9.43375 32.19726,9.43359 8.8865,1.6e-4 19.61891,-3.14437 32.19727,-9.43359 l 12.71484,24.60937 c -16.40649,8.33998 -31.37718,12.5099 -44.91211,12.50977 -13.80879,1.3e-4 -28.77948,-4.16979 -44.91211,-12.50977 l 12.71485,-24.60937 m 32.8125,51.67969 c 15.5857,5.0587 31.30834,7.58799 47.16797,7.58789 21.60127,1e-4 42.3825,-4.51161 62.34375,-13.53516 0.68326,4.37512 1.02506,8.2716 1.02539,11.68945 -3.3e-4,9.29698 -1.98275,18.79892 -5.94727,28.50586 -7.38313,17.63678 -20.50811,31.513724 -39.375,41.630863 -18.73073,9.980497 -40.26391,14.970726 -64.59961,14.970703 -24.33613,2.3e-5 -45.93767,-4.853488 -64.80468,-14.560547 -18.86733,-9.843702 -32.33411,-23.310489 -40.4004,-40.400389 -4.78526,-10.25382 -7.17784,-21.05459 -7.17773,-32.40235 -1.1e-4,-3.14441 0.20497,-6.28894 0.61523,-9.43359 20.37097,9.02355 41.494,13.53526 63.36915,13.53516 16.54278,1e-4 32.47049,-2.52919 47.7832,-7.58789 m 0,28.91601 c -15.58614,4.23836 -31.51386,6.3575 -47.7832,6.35742 -8.61345,8e-5 -17.22672,-0.61515 -25.83985,-1.8457 7.24594,9.43367 17.43148,16.74811 30.55664,21.94336 13.12481,5.195366 27.68534,7.79302 43.68164,7.792969 15.99586,5.1e-5 30.41967,-2.597603 43.27149,-7.792969 12.988,-5.33197 22.9001,-12.71477 29.73633,-22.14844 -9.84404,1.36727 -18.73075,2.05086 -26.66016,2.05078 -15.99635,8e-5 -31.65063,-2.11906 -46.96289,-6.35742 M 95.521484,-246.0625 c -5.8e-5,4.92207 0.478457,14.08222 1.435547,27.48047 l 68.291019,-4.30664 1.02539,13.74023 -68.08594,4.51172 c 1.093688,10.11734 2.59759,19.61928 4.51172,28.50586 l 63.16406,-21.5332 4.51172,12.91992 -63.98437,22.14844 c 2.46086,7.92979 5.19523,15.24424 8.20312,21.94336 13.94522,30.8985 32.06044,54.482458 54.3457,70.751949 24.74594,18.046881 53.867,27.07031 87.36328,27.070313 33.49585,-3e-6 62.61691,-9.023432 87.36329,-27.070313 22.01139,-16.132772 40.05824,-39.716729 54.14062,-70.751949 3.55432,-7.65615 6.42541,-15.10732 8.61328,-22.35352 l -62.95898,-21.73828 4.51172,-12.91992 61.93359,21.12304 c 1.91369,-8.47642 3.41759,-17.91 4.51172,-28.30078 l -66.85547,-4.30664 1.02539,-13.74023 67.06055,4.30664 c 0.81993,-11.21075 1.23009,-20.3709 1.23047,-27.48047 -3.8e-4,-6.28886 -0.34218,-12.91971 -1.02539,-19.89258 -0.68398,-6.97243 -1.36757,-12.57789 -2.05079,-16.8164 -0.68397,-4.23804 -1.77771,-10.39038 -3.28125,-18.45704 -1.50427,-8.06614 -2.52966,-13.80832 -3.07617,-17.22656 -3.69177,-22.01142 -8.40856,-44.43327 -14.15039,-67.26562 -33.22298,7.93002 -60.29326,25.29328 -81.21094,52.08984 -15.85963,-2.8708 -34.385,-4.30635 -55.57617,-4.30664 -21.46504,2.9e-4 -40.12713,1.43584 -55.98633,4.30664 -20.91811,-26.79656 -47.98839,-44.15982 -81.21093,-52.08984 -5.74227,22.83235 -10.45906,45.2542 -14.15039,67.26562 -0.68366,3.69168 -1.77741,9.43386 -3.28125,17.22656 -1.36725,7.79322 -2.461004,13.94556 -3.281254,18.45704 -0.683654,4.37523 -1.367247,10.04905 -2.050781,17.02148 -0.683653,6.83615 -1.025449,13.39864 -1.025391,19.6875 m -26.25,29.32617 c -0.683625,-10.52716 -1.025421,-20.50762 -1.02539,-29.9414 -3.1e-5,-7.79276 0.205046,-15.31229 0.615234,-22.5586 0.546843,-7.24586 1.435514,-14.9021 2.666016,-22.96875 1.367151,-8.20287 2.4609,-14.49192 3.28125,-18.86719 0.820274,-4.51144 2.255819,-11.75753 4.30664,-21.73828 2.187456,-10.11689 3.623002,-16.8161 4.306641,-20.09765 3.144482,-15.99577 7.314399,-33.56412 12.509766,-52.70508 l 3.076171,-11.89453 12.304688,1.8457 c 19.55069,3.00818 37.93934,9.22888 55.16602,18.66211 17.36313,9.29722 32.40218,20.5765 45.11718,33.83789 14.35528,-1.77702 29.25761,-2.6657 44.70703,-2.66601 15.44899,3.1e-4 30.35132,0.88899 44.70704,2.66601 12.71456,-13.26139 27.68525,-24.54067 44.9121,-33.83789 17.36296,-9.43323 35.81997,-15.65393 55.3711,-18.66211 l 12.09961,-1.8457 3.28125,11.89453 c 5.19493,19.14096 9.36484,36.70931 12.50976,52.70508 0.6832,3.28155 2.05039,9.98076 4.10157,20.09765 2.1871,9.98075 3.691,17.22684 4.51171,21.73828 0.81992,4.37527 1.84531,10.66432 3.07618,18.86719 1.36678,8.06665 2.25545,15.72289 2.66601,22.96875 0.54647,7.24631 0.81991,14.76584 0.82031,22.5586 -4e-4,9.29706 -0.3422,19.20916 -1.02539,29.73632 l 21.53321,1.43555 -0.82032,13.94531 -21.94335,-1.43554 c -1.09416,11.75795 -3.07658,23.58411 -5.94727,35.47851 l 21.32812,7.38281 -4.51171,13.125 -20.50782,-6.97265 c -2.59805,8.20322 -5.74257,16.40634 -9.43359,24.60937 -15.85975,35.410207 -36.91441,62.685571 -63.16406,81.826175 -29.66826,21.601543 -64.18971,32.402313 -103.56446,32.402344 -39.51189,-3.1e-5 -74.1017,-10.800801 -103.76953,-32.402344 -26.25009,-19.140604 -47.30475,-46.415968 -63.164059,-81.826175 -3.964892,-8.7499 -7.041061,-16.8163 -9.228516,-24.19922 l -19.277344,6.5625 -4.511719,-13.125 20.097657,-6.97265 c -2.734412,-10.80065 -4.716832,-22.76353 -5.947266,-35.88867 l -20.712891,1.43554 -0.820312,-13.94531 20.302734,-1.23047 m 78.544926,-31.37695 c -1.1e-4,-9.5701 3.34949,-17.56814 10.04882,-23.99414 6.83581,-6.56227 14.83385,-9.84352 23.99414,-9.84375 8.47641,2.3e-4 15.85922,3.00804 22.14844,9.02344 6.42561,5.87912 10.11701,12.85177 11.07422,20.91796 -6.56267,9.43379 -15.03922,15.79121 -25.42969,19.07227 -4.51186,1.50409 -9.50209,2.25604 -14.9707,2.25586 -9.16028,1.8e-4 -17.56848,-2.25567 -25.22461,-6.76758 -1.09386,-3.14434 -1.64073,-6.69902 -1.64062,-10.66406 m 51.88476,-9.02344 c -4.92203,2.1e-4 -9.02359,1.50412 -12.30469,4.51172 -3.28139,2.8713 -4.92202,6.49434 -4.92187,10.86914 -1.5e-4,1.77754 0.34165,3.55488 1.02539,5.33203 5.87875,-0.82012 11.14242,-2.80254 15.79102,-5.94726 4.78498,-3.28105 8.40803,-7.17753 10.86914,-11.68946 -2.87127,-2.05057 -6.35759,-3.07596 -10.45899,-3.07617 m 163.44727,9.22852 c -3.3e-4,3.96504 -0.5472,7.51972 -1.64063,10.66406 -7.65656,4.5119 -16.06476,6.76776 -25.22461,6.76758 -5.05888,1.8e-4 -10.04911,-0.82013 -14.9707,-2.46094 -10.52762,-3.41778 -19.00417,-9.70683 -25.42969,-18.86719 1.09349,-9.02322 5.05833,-16.40603 11.89453,-22.14843 6.15207,-5.19508 13.26144,-7.79274 21.32813,-7.79297 9.15985,2.3e-4 17.08953,3.28148 23.78906,9.84375 6.83562,6.426 10.25358,14.42404 10.25391,23.99414 m -33.63282,10.66406 c 1.64034,0.41035 4.23799,0.61542 7.79297,0.61523 6.28876,1.9e-4 12.30438,-1.36699 18.04688,-4.10156 2.18718,-2.87089 3.28093,-6.01542 3.28125,-9.43359 -3.2e-4,-1.64042 -0.27376,-3.21269 -0.82031,-4.7168 -1.64095,-0.40995 -3.34993,-0.61502 -5.12696,-0.61523 -6.01593,2.1e-4 -11.21124,1.84591 -15.58593,5.53711 -4.3753,3.55488 -6.90459,7.79316 -7.5879,12.71484"
         style="font-size:420px"
         id="path4322" />
    </g>
  </g>
</svg>
