<?xml version="1.0" encoding="UTF-8" standalone="no"?>
<!-- Created with Inkscape (http://www.inkscape.org/) -->

<svg
   xmlns:dc="http://purl.org/dc/elements/1.1/"
   xmlns:cc="http://creativecommons.org/ns#"
   xmlns:rdf="http://www.w3.org/1999/02/22-rdf-syntax-ns#"
   xmlns:svg="http://www.w3.org/2000/svg"
   xmlns="http://www.w3.org/2000/svg"
   xmlns:sodipodi="http://sodipodi.sourceforge.net/DTD/sodipodi-0.dtd"
   xmlns:inkscape="http://www.inkscape.org/namespaces/inkscape"
   width="512"
   height="512"
   id="svg3003"
   version="1.1"
   inkscape:version="0.48.4 r9939"
   sodipodi:docname="SMILING FACE WITH HEART-SHAPED EYES.svg">
  <defs
     id="defs3005" />
  <sodipodi:namedview
     id="base"
     pagecolor="#ffffff"
     bordercolor="#666666"
     borderopacity="1.0"
     inkscape:pageopacity="0.0"
     inkscape:pageshadow="2"
     inkscape:zoom="1.0214844"
     inkscape:cx="312.65357"
     inkscape:cy="245.02671"
     inkscape:current-layer="layer1"
     showgrid="true"
     inkscape:document-units="px"
     inkscape:grid-bbox="true"
     inkscape:window-width="679"
     inkscape:window-height="729"
     inkscape:window-x="683"
     inkscape:window-y="18"
     inkscape:window-maximized="0" />
  <metadata
     id="metadata3008">
    <rdf:RDF>
      <cc:Work
         rdf:about="">
        <dc:format>image/svg+xml</dc:format>
        <dc:type
           rdf:resource="http://purl.org/dc/dcmitype/StillImage" />
        <dc:title></dc:title>
      </cc:Work>
    </rdf:RDF>
  </metadata>
  <g
     id="layer1"
     inkscape:label="Layer 1"
     inkscape:groupmode="layer"
     transform="translate(0,448)">
    <g
       style="font-size:144px;font-style:normal;font-weight:normal;text-align:center;line-height:125%;letter-spacing:0px;word-spacing:0px;text-anchor:middle;fill:#000000;fill-opacity:1;stroke:none;font-family:Sans"
       id="text2983">
      <path
         d="m 333.61719,-295.28125 c 3.55438,2.5e-4 7.04071,0.95728 10.45898,2.87109 8.20281,5.05884 12.30437,11.89477 12.30469,20.50782 -0.13704,8.88693 -3.62336,17.56856 -10.45899,26.04492 l -34.45312,42.45117 -0.41016,0 -32.60742,-38.96484 c -8.47679,-9.29667 -12.71507,-19.14041 -12.71484,-29.53125 -0.13695,-2.87087 0.47828,-6.0154 1.8457,-9.4336 5.19508,-9.29663 12.09937,-13.94506 20.71289,-13.94531 5.60521,0.13697 10.59544,2.39283 14.9707,6.76758 3.82786,4.37524 6.42551,9.91234 7.79297,16.61133 l 0.20508,0 c -2.7e-4,-1.91384 0.8884,-4.85329 2.66602,-8.81836 4.78487,-9.70679 11.34737,-14.5603 19.6875,-14.56055 m -155.03907,0 c 8.3397,2.5e-4 14.90219,4.85376 19.6875,14.56055 1.77719,3.96507 2.66586,6.90452 2.66602,8.81836 l 0.20508,0 c 1.36702,-6.69899 3.96467,-12.23609 7.79297,-16.61133 4.37482,-4.37475 9.36505,-6.63061 14.9707,-6.76758 8.61309,2.5e-4 15.51738,4.64868 20.71289,13.94531 1.36698,3.4182 1.98221,6.56273 1.8457,9.4336 -2.1e-4,10.39084 -4.23848,20.23458 -12.71484,29.53125 l -32.60742,38.96484 -0.41016,0 -34.45312,-42.45117 c -6.83606,-8.47636 -10.32239,-17.15799 -10.45899,-26.04492 -1.2e-4,-8.61305 4.10144,-15.44898 12.30469,-20.50782 3.41783,-1.91381 6.90416,-2.87084 10.45898,-2.87109 M 71.9375,-198.89453 c -3.5e-5,-50.99589 17.978463,-94.47241 53.93555,-130.42969 35.9569,-36.09343 79.36506,-54.14029 130.22461,-54.14062 50.99582,3.3e-4 94.40398,18.04719 130.22461,54.14062 35.81992,35.95728 53.73006,79.4338 53.73046,130.42969 -4e-4,50.85948 -17.91054,94.19928 -53.73046,130.01953 -35.82063,35.8203 -79.22879,53.730438 -130.22461,53.730469 C 205.23811,-15.144562 161.82995,-33.0547 125.87305,-68.875 89.915963,-104.69525 71.937465,-148.03505 71.9375,-198.89453 m 27.685547,0 c -6.3e-5,43.20323 15.244063,80.0489 45.732423,110.537108 30.62486,30.351575 67.53889,45.527341 110.74219,45.527344 43.33958,-3e-6 80.18524,-15.175769 110.53711,-45.527344 30.48792,-30.488208 45.73204,-67.333878 45.73242,-110.537108 -3.8e-4,-43.33965 -15.2445,-80.32203 -45.73242,-110.94727 -30.35187,-30.6247 -67.19753,-45.93719 -110.53711,-45.9375 -43.2033,3.1e-4 -80.11733,15.3128 -110.74219,45.9375 -30.48836,30.62524 -45.732486,67.60762 -45.732423,110.94727 m 48.398433,57.62695 23.58399,-14.56054 c 3.82799,6.01572 8.47642,11.62119 13.94531,16.8164 19.4139,19.41414 42.9295,29.12116 70.54688,29.12109 27.61694,7e-5 51.13254,-9.70695 70.54687,-29.12109 5.33174,-5.33193 9.98017,-11.00575 13.94531,-17.02148 l 23.58399,14.76562 c -5.05892,7.79306 -11.00618,15.1075 -17.8418,21.94336 -24.8831,24.746144 -54.96119,37.119178 -90.23437,37.119142 -35.27363,3.6e-5 -65.35172,-12.372998 -90.23438,-37.119142 -6.83606,-6.97257 -12.78332,-14.28702 -17.8418,-21.94336"
         style="font-size:420px"
         id="path3278" />
    </g>
  </g>
</svg>
